<?xml version="1.0" encoding="utf-8"?>
<!-- Generator: Adobe Illustrator 16.0.0, SVG Export Plug-In . SVG Version: 6.00 Build 0)  -->
<!DOCTYPE svg PUBLIC "-//W3C//DTD SVG 1.1//EN" "http://www.w3.org/Graphics/SVG/1.1/DTD/svg11.dtd">
<svg version="1.1" id="Layer_1" xmlns="http://www.w3.org/2000/svg" xmlns:xlink="http://www.w3.org/1999/xlink" x="0px" y="0px"
	 width="100px" height="99.864px" viewBox="0 0 100 99.864" enable-background="new 0 0 100 99.864" xml:space="preserve">
<rect fill="#9000FF" width="100" height="99.864"/>
<g>
	<path fill="#FFFFFF" d="M70.393,37.708H29.644c-4.019,12.281,2.746,13.583,6.793,13.583c6.777,0,10.104-6.903,11.454-10.866h4.255
		c1.35,3.963,4.674,10.866,11.455,10.866C67.646,51.291,74.408,49.989,70.393,37.708"/>
	<path fill="#FFFFFF" d="M50.019,22.767c14.979,0,27.167,12.188,27.167,27.165c0,14.979-12.188,27.166-27.167,27.166
		S22.854,64.909,22.854,49.932C22.854,34.954,35.04,22.767,50.019,22.767 M50.019,17.333c-18.005,0-32.598,14.594-32.598,32.596
		c0,18.007,14.593,32.601,32.598,32.601c18.002,0,32.597-14.594,32.597-32.601C82.615,31.928,68.02,17.333,50.019,17.333"/>
	<path fill="#FFFFFF" d="M36.437,62.157c2.175,5.563,7.247,9.507,13.582,9.507c6.333,0,11.406-3.945,13.583-9.507H36.437z"/>
</g>
</svg>
