<?xml version="1.0" encoding="utf-8"?>
<!-- Generator: Adobe Illustrator 16.0.0, SVG Export Plug-In . SVG Version: 6.00 Build 0)  -->
<!DOCTYPE svg PUBLIC "-//W3C//DTD SVG 1.1//EN" "http://www.w3.org/Graphics/SVG/1.1/DTD/svg11.dtd">
<svg version="1.1" id="Layer_1" xmlns="http://www.w3.org/2000/svg" xmlns:xlink="http://www.w3.org/1999/xlink" x="0px" y="0px"
	 width="100px" height="99.864px" viewBox="0 0 100 99.864" enable-background="new 0 0 100 99.864" xml:space="preserve">
<rect fill="#029FC9" width="99.863" height="99.864"/>
<g>
	<path fill="#FFFFFF" d="M36.418,59.493C38.594,65.057,43.669,69,50.001,69c6.333,0,11.407-3.945,13.583-9.508H36.418L36.418,59.493
		z"/>
	<path fill="#FFFFFF" d="M43.21,41.157c0,2.625-2.128,4.753-4.754,4.753s-4.754-2.128-4.754-4.753c0-2.626,2.128-4.753,4.754-4.753
		S43.21,38.531,43.21,41.157"/>
	<path fill="#FFFFFF" d="M66.301,41.157c0,2.625-2.127,4.753-4.754,4.753s-4.754-2.128-4.754-4.753c0-2.626,2.127-4.753,4.754-4.753
		S66.301,38.531,66.301,41.157"/>
	<path fill="#FFFFFF" d="M87.621,67.931c0.063,0.016,0.125,0.024,0.184,0.032c0.084,0.014,0.17,0.019,0.254,0.019
		c0.938,0,1.697-0.759,1.697-1.696c0-0.812-0.566-1.49-1.328-1.658l-0.104-0.033c-0.785-0.313-4.359-2.107-5.404-9.411
		c-0.223-1.562,0.002-3.575,0.26-5.904c0.975-8.751,2.439-21.972-18.869-32.066c-0.469-0.221-1.01-0.217-1.479,0.011
		c-0.023,0.013-0.045,0.03-0.068,0.046c-0.088-0.038-0.174-0.073-0.266-0.109c-0.082-0.63-0.48-1.188-1.123-1.39
		c-0.232-0.073-5.834-1.815-13.265-1.815c-8.441,0-20.156,2.311-28.016,13.313c-4.855,6.795-6.993,15.393-5.728,22.998
		c0.098,0.578,0.203,1.144,0.305,1.688c0.859,4.559,1.378,7.31-5.004,11.564c-0.602,0.398-0.883,1.133-0.702,1.834
		c0.18,0.701,0.782,1.207,1.503,1.27c0.686,0.058,1.349,0.086,1.982,0.086h0.003c0.718,0,1.405-0.059,2.083-0.129
		c-0.106,2.16-0.623,4.547-2.151,5.564c-1.173,0.783-1.621,1.659-1.332,2.609c0.124,0.416,0.592,1.381,2.202,1.381
		c0.743,0,1.848-0.194,3.094-0.516l-1.3,5.2c-0.125,0.507-0.011,1.043,0.311,1.454c0.321,0.41,0.813,0.652,1.337,0.652
		c0.613,0,14.146-0.096,15.816-8.149c5.055,3.22,11.051,5.095,17.488,5.095c6.198,0,11.991-1.731,16.929-4.731
		c1.998,7.687,15.116,7.788,15.719,7.788c0.012,0.003,0.022,0.003,0.026,0c0.937,0,1.697-0.76,1.697-1.696
		c0-0.248-0.054-0.481-0.149-0.696l-1.238-4.949c1.422,0.363,2.572,0.553,3.104,0.553c1.609,0,2.078-0.967,2.201-1.383
		c0.289-0.948-0.16-1.824-1.332-2.608c-1.444-0.963-1.996-3.108-2.142-5.155c0.797,0.278,1.591,0.549,2.359,0.807
		C87.461,67.896,87.621,67.931,87.621,67.931 M25.688,59.317c0.364-0.637,0.698-1.309,0.99-2.033
		c1.932-4.793,1.932-10.154,1.932-12.729c0-7.995,3.886-11.886,11.886-11.886c15.807,0,20.346-8.718,20.531-9.089
		c0.058-0.108,0.099-0.225,0.13-0.347l0.155-0.628c0.095,0.044,0.185,0.089,0.277,0.134c0.092,3.867,1.23,9.522,6.365,13.633
		c4.709,3.768,4.137,9.012,3.676,13.228c-0.123,1.118-0.236,2.173-0.236,3.104c0,3.189,0.933,5.651,2.426,7.604
		c-4.62,8.414-13.563,14.126-23.818,14.126C39.351,74.432,30.139,68.256,25.688,59.317"/>
</g>
</svg>
