<?xml version="1.0" encoding="utf-8"?>
<!-- Generator: Adobe Illustrator 16.0.0, SVG Export Plug-In . SVG Version: 6.00 Build 0)  -->
<!DOCTYPE svg PUBLIC "-//W3C//DTD SVG 1.1//EN" "http://www.w3.org/Graphics/SVG/1.1/DTD/svg11.dtd">
<svg version="1.1" id="Layer_1" xmlns="http://www.w3.org/2000/svg" xmlns:xlink="http://www.w3.org/1999/xlink" x="0px" y="0px"
	 width="100px" height="99.864px" viewBox="0 0 100 99.864" enable-background="new 0 0 100 99.864" xml:space="preserve">
<rect y="-1" fill="#FF7700" width="100" height="99.864"/>
<g>
	<path fill="#FFFFFF" d="M49.62,20.832c16.083,0,29.166,13.084,29.166,29.167c0,16.083-13.086,29.167-29.166,29.167
		c-16.083,0-29.167-13.087-29.167-29.167C20.451,33.916,33.535,20.832,49.62,20.832 M49.62,14.997c-19.333,0-35.001,15.67-35.001,35
		c0,19.332,15.668,35.002,35.001,35.002c19.327,0,34.999-15.67,34.999-35.002C84.616,30.669,68.946,14.997,49.62,14.997"/>
	<path fill="#FFFFFF" d="M35.034,63.123c2.335,5.972,7.781,10.208,14.583,10.208c6.799,0,12.246-4.234,14.583-10.208H35.034z"/>
	<path fill="#FFFFFF" d="M33.575,48.903c-0.724,0-1.408-0.431-1.692-1.144c-0.374-0.936,0.079-1.995,1.015-2.371l7.291-2.915
		c0.938-0.38,1.997,0.079,2.37,1.015c0.376,0.932-0.08,1.994-1.014,2.369l-7.292,2.916C34.031,48.864,33.799,48.903,33.575,48.903"
		/>
	<path fill="#FFFFFF" d="M29.199,44.893c-0.56,0-1.118-0.211-1.545-0.64c-0.855-0.854-0.855-2.24,0-3.095
		c1.324-1.322,8.187-7.932,13.213-7.932c1.208,0,2.187,0.979,2.187,2.187s-0.979,2.188-2.187,2.188c-2.393,0-7.358,3.89-10.121,6.65
		C30.319,44.68,29.758,44.893,29.199,44.893"/>
	<path fill="#FFFFFF" d="M65.659,48.903c-0.227,0-0.456-0.039-0.68-0.13l-7.29-2.916c-0.934-0.377-1.391-1.438-1.016-2.369
		c0.373-0.933,1.434-1.393,2.37-1.016l7.292,2.917c0.931,0.376,1.388,1.435,1.014,2.371C67.065,48.472,66.382,48.903,65.659,48.903"
		/>
	<path fill="#FFFFFF" d="M70.032,44.893c-0.558,0-1.119-0.211-1.547-0.637c-2.763-2.765-7.732-6.653-10.118-6.653
		c-1.213,0-2.188-0.98-2.188-2.188c0-1.207,0.975-2.187,2.188-2.187c5.027,0,11.887,6.608,13.213,7.932
		c0.855,0.854,0.855,2.239,0,3.095C71.152,44.68,70.592,44.893,70.032,44.893"/>
</g>
</svg>
