<?xml version="1.0" encoding="utf-8"?>
<!-- Generator: Adobe Illustrator 16.0.0, SVG Export Plug-In . SVG Version: 6.00 Build 0)  -->
<!DOCTYPE svg PUBLIC "-//W3C//DTD SVG 1.1//EN" "http://www.w3.org/Graphics/SVG/1.1/DTD/svg11.dtd">
<svg version="1.1" id="Layer_1" xmlns="http://www.w3.org/2000/svg" xmlns:xlink="http://www.w3.org/1999/xlink" x="0px" y="0px"
	 width="100px" height="99.864px" viewBox="0 0 100 99.864" enable-background="new 0 0 100 99.864" xml:space="preserve">
<rect fill="#00AD09" width="100" height="99.864"/>
<g>
	<path fill="#FFFFFF" d="M36.825,68.05c2.109,5.398,7.029,9.225,13.175,9.225c6.142,0,11.067-3.827,13.177-9.225H36.825z"/>
	<path fill="#FFFFFF" d="M38.8,45.651c-2.548,0-4.611,2.065-4.611,4.614c0,2.544,2.063,4.611,4.611,4.611s4.611-2.066,4.611-4.611
		C43.411,47.717,41.348,45.651,38.8,45.651"/>
	<path fill="#FFFFFF" d="M61.199,45.651c-2.545,0-4.61,2.065-4.61,4.614c0,2.544,2.065,4.611,4.61,4.611
		c2.551,0,4.613-2.066,4.613-4.611C65.811,47.717,63.748,45.651,61.199,45.651"/>
	<path fill="#FFFFFF" d="M87.935,28.663c-0.65-1.302-2.238-1.832-3.536-1.18c-0.106,0.055-6.398,3.166-14.894,5.702
		c-0.052-1.048-0.078-2.158-0.115-3.298c-0.199-6.973-0.403-14.188-5.411-16.773c-3.368-1.742-7.837-1.59-13.979,2.234
		c-6.139-3.824-10.609-3.972-13.979-2.234c-5.004,2.586-5.214,9.801-5.41,16.773c-0.035,1.14-0.068,2.247-0.12,3.295
		c-8.488-2.54-14.782-5.646-14.891-5.7c-1.3-0.651-2.882-0.119-3.535,1.181c-0.651,1.304-0.123,2.883,1.179,3.535
		c0.378,0.19,5.011,2.478,11.695,4.762c-0.007-0.004-0.019-0.007-0.026-0.01c-4.097,5.332-6.536,11.999-6.536,19.244
		c0,17.462,14.16,31.624,31.622,31.624c17.463,0,31.624-14.162,31.624-31.624c0-7.244-2.444-13.912-6.539-19.244
		c-0.006,0.002-0.018,0.006-0.021,0.01c6.683-2.284,11.312-4.571,11.694-4.762C88.059,31.547,88.583,29.965,87.935,28.663
		 M35.85,30.804c4.535,0.992,9.37,1.672,14.15,1.672c4.779,0,9.616-0.681,14.153-1.672c0.036,1.301,0.082,2.567,0.165,3.774
		c-4.584,1.083-9.52,1.852-14.318,1.852c-4.796,0-9.728-0.771-14.315-1.855C35.766,33.368,35.809,32.103,35.85,30.804
		 M76.353,56.192c0,14.533-11.822,26.354-26.353,26.354c-14.53,0-26.351-11.82-26.351-26.354c0-6.734,2.561-12.871,6.735-17.533
		c-0.012-0.004-0.023-0.006-0.034-0.011C36.322,40.338,43.224,41.7,50,41.7c6.778,0,13.678-1.359,19.653-3.052
		c-0.013,0.005-0.024,0.006-0.036,0.011C73.79,43.32,76.353,49.458,76.353,56.192 M27.535,37.81
		c0.014,0.002,0.029,0.007,0.041,0.014C27.565,37.817,27.548,37.813,27.535,37.81 M72.423,37.824
		c0.015-0.006,0.028-0.011,0.041-0.014C72.452,37.813,72.435,37.817,72.423,37.824"/>
</g>
</svg>
