<?xml version="1.0" encoding="utf-8"?>
<!-- Generator: Adobe Illustrator 16.0.0, SVG Export Plug-In . SVG Version: 6.00 Build 0)  -->
<!DOCTYPE svg PUBLIC "-//W3C//DTD SVG 1.1//EN" "http://www.w3.org/Graphics/SVG/1.1/DTD/svg11.dtd">
<svg version="1.1" id="Layer_1" xmlns="http://www.w3.org/2000/svg" xmlns:xlink="http://www.w3.org/1999/xlink" x="0px" y="0px"
	 width="100px" height="99.864px" viewBox="0 0 100 99.864" enable-background="new 0 0 100 99.864" xml:space="preserve">
<rect fill="#006FFF" width="100" height="99.864"/>
<g>
	<path fill="#FFFFFF" d="M35.418,66.54c2.335,5.972,7.78,10.21,14.582,10.21c6.799,0,12.248-4.238,14.583-10.21H35.418z"/>
	<path fill="#FFFFFF" d="M42.708,46.853c0,2.818-2.285,5.104-5.104,5.104c-2.819,0-5.103-2.286-5.103-5.104
		c0-2.818,2.284-5.103,5.103-5.103C40.425,41.75,42.708,44.034,42.708,46.853"/>
	<path fill="#FFFFFF" d="M67.5,46.853c0,2.818-2.284,5.104-5.104,5.104c-2.818,0-5.104-2.286-5.104-5.104
		c0-2.818,2.286-5.103,5.104-5.103C65.216,41.75,67.5,44.034,67.5,46.853"/>
	<path fill="#FFFFFF" d="M74.534,28.468c-1.098-2.959-4.132-9.572-10.768-14.898c-0.941-0.758-2.317-0.602-3.075,0.339
		c-0.756,0.941-0.606,2.318,0.335,3.075c1.677,1.343,3.08,2.795,4.271,4.235c-4.441-3.92-10.524-8.284-16.842-9.715
		c-0.815-0.189-1.663,0.111-2.188,0.759c-0.524,0.652-0.633,1.544-0.278,2.299l1.554,3.335c-2.119-0.629-4.651-1.16-7.118-1.16
		c-1.937,0-3.663,0.329-5.129,0.976c-5.1,2.256-8.323,5.883-9.07,10.027C19.325,34.132,15,43.268,15,53.416
		c0,19.33,15.67,35,34.999,35c19.328,0,35.001-15.668,35.001-35C84.999,43.647,80.989,34.816,74.534,28.468 M50,82.581
		c-16.082,0-29.166-13.086-29.166-29.168c0-7.173,2.612-13.738,6.925-18.821c1.882,2.184,5.271,3.387,9.863,3.387
		c1.35,0,2.3-0.111,2.342-0.116c1.058-0.124,1.874-0.992,1.928-2.058c0.055-1.065-0.666-2.014-1.706-2.247
		c-0.003,0-0.327-0.135-0.482-0.412c-0.235-0.423-0.176-1.229,0.162-2.206c0.362-1.05,1.469-4.236,8.793-4.236
		c7.926,0,17.962,3.76,20.473,4.75c6.135,5.351,10.034,13.202,10.034,21.959C79.167,69.499,66.082,82.581,50,82.581"/>
</g>
</svg>
