<?xml version="1.0" encoding="utf-8"?>
<!-- Generator: Adobe Illustrator 16.0.0, SVG Export Plug-In . SVG Version: 6.00 Build 0)  -->
<!DOCTYPE svg PUBLIC "-//W3C//DTD SVG 1.1//EN" "http://www.w3.org/Graphics/SVG/1.1/DTD/svg11.dtd">
<svg version="1.1" id="Layer_1" xmlns="http://www.w3.org/2000/svg" xmlns:xlink="http://www.w3.org/1999/xlink" x="0px" y="0px"
	 width="100px" height="99.864px" viewBox="0 0 100 99.864" enable-background="new 0 0 100 99.864" xml:space="preserve">
<rect fill="#FF004F" width="100" height="99.864"/>
<g>
	<path fill="#FFFFFF" d="M35.417,74.302C37.753,80.273,43.199,84.511,50,84.511c6.798,0,12.246-4.238,14.584-10.209H35.417z"/>
	<path fill="#FFFFFF" d="M33.958,60.084c-0.724,0-1.407-0.433-1.692-1.146c-0.375-0.936,0.081-1.997,1.015-2.37l7.291-2.916
		c0.926-0.375,1.996,0.08,2.371,1.014c0.373,0.935-0.08,1.996-1.018,2.371l-7.29,2.915C34.412,60.042,34.184,60.084,33.958,60.084"
		/>
	<path fill="#FFFFFF" d="M29.585,56.076c-0.563,0-1.121-0.217-1.548-0.643c-0.853-0.856-0.853-2.239,0-3.096
		c1.324-1.324,8.188-7.933,13.215-7.933c1.208,0,2.188,0.98,2.188,2.188s-0.98,2.188-2.188,2.188c-2.393,0-7.36,3.892-10.121,6.65
		C30.703,55.86,30.144,56.076,29.585,56.076"/>
	<path fill="#FFFFFF" d="M66.042,60.084c-0.227,0-0.453-0.043-0.678-0.131l-7.291-2.915c-0.933-0.376-1.392-1.438-1.017-2.37
		c0.376-0.936,1.438-1.392,2.368-1.016l7.292,2.917c0.938,0.374,1.392,1.434,1.019,2.371C67.449,59.652,66.766,60.084,66.042,60.084
		"/>
	<path fill="#FFFFFF" d="M70.417,56.076c-0.561,0-1.117-0.217-1.549-0.642c-2.766-2.763-7.732-6.653-10.119-6.653
		c-1.206,0-2.186-0.979-2.186-2.188c0-1.207,0.979-2.187,2.186-2.187c5.026,0,11.89,6.609,13.215,7.934
		c0.853,0.854,0.853,2.237,0,3.092C71.537,55.86,70.976,56.076,70.417,56.076"/>
	<path fill="#FFFFFF" d="M69.754,32.289c2.153-11.563-4.075-22.428-4.371-23.005c-0.453-0.876-1.519-1.238-2.407-0.808
		c-0.892,0.427-1.282,1.485-0.876,2.39c1.368,3.051,1.142,4.773,0.862,8.366C57.352,7.284,52.071,3.258,49.134,3.718
		c-1.042,0.25-1.283,1.441-0.916,2.342c2.864,10.415-3.577,7.055-7.213,12.529c-0.148-1.731-1-2.645,0.614-5.007
		c0.539-0.792,0.376-1.872-0.38-2.463c-0.757-0.595-1.846-0.495-2.483,0.22c-0.336,0.372-6.687,7.574-7.333,20.181
		C21.559,37.71,15,48.674,15,61.178c0,19.33,15.669,35.002,35,35.002c19.329,0,35-15.672,35-35.002
		C85.002,49.181,78.959,38.598,69.754,32.289 M50.002,90.345c-16.083,0-29.167-13.085-29.167-29.166
		c0-16.08,13.084-29.167,29.167-29.167S79.168,45.1,79.168,61.179C79.168,77.26,66.084,90.345,50.002,90.345"/>
</g>
</svg>
