<?xml version="1.0" encoding="utf-8"?>
<!-- Generator: Adobe Illustrator 16.0.0, SVG Export Plug-In . SVG Version: 6.00 Build 0)  -->
<!DOCTYPE svg PUBLIC "-//W3C//DTD SVG 1.1//EN" "http://www.w3.org/Graphics/SVG/1.1/DTD/svg11.dtd">
<svg version="1.1" id="Layer_1" xmlns="http://www.w3.org/2000/svg" xmlns:xlink="http://www.w3.org/1999/xlink" x="0px" y="0px"
	 width="100px" height="100px" viewBox="0 0 100 100" enable-background="new 0 0 100 100" xml:space="preserve">
<g>
	<polygon fill="#333333" points="0,50.214 0,24.84 2.719,22.574 97.872,22.574 100.139,26.199 100.139,47.496 89.266,56.557 
		58.451,56.557 58.451,50.214 43.047,50.214 43.047,56.557 7.705,56.557 	"/>
	<rect x="45.766" y="52.536" fill="#333333" width="9.515" height="12.687"/>
	<polygon fill="#333333" points="0.75,55.625 6.797,60.408 43.047,60.408 43.047,68.109 58,68.109 58.111,60.634 91.699,60.691 
		99.006,53.386 99.006,86.689 96.063,88.954 4.758,88.954 0.75,87.625 	"/>
	<polygon fill="#333333" points="32.597,22.574 32.597,10 68.45,10 68.45,22.574 63.184,22.574 63.184,14.928 37.525,15.098 
		37.695,22.574 	"/>
</g>
</svg>
