<?xml version="1.0" encoding="utf-8"?>
<!-- Generator: Adobe Illustrator 16.0.0, SVG Export Plug-In . SVG Version: 6.00 Build 0)  -->
<!DOCTYPE svg PUBLIC "-//W3C//DTD SVG 1.1//EN" "http://www.w3.org/Graphics/SVG/1.1/DTD/svg11.dtd">
<svg version="1.1"
	 id="svg2" sodipodi:docname="blank.svg" inkscape:version="0.48.2 r9819" xmlns:dc="http://purl.org/dc/elements/1.1/" xmlns:cc="http://creativecommons.org/ns#" xmlns:rdf="http://www.w3.org/1999/02/22-rdf-syntax-ns#" xmlns:svg="http://www.w3.org/2000/svg" xmlns:sodipodi="http://sodipodi.sourceforge.net/DTD/sodipodi-0.dtd" xmlns:inkscape="http://www.inkscape.org/namespaces/inkscape"
	 xmlns="http://www.w3.org/2000/svg" xmlns:xlink="http://www.w3.org/1999/xlink" x="0px" y="0px" width="100px" height="100px"
	 viewBox="0 0 100 100" enable-background="new 0 0 100 100" xml:space="preserve">
<defs>
	
	<inkscape:path-effect  id="path-effect5043" effect="spiro" is_visible="true"></inkscape:path-effect>
	<inkscape:path-effect  id="path-effect5065" effect="spiro" is_visible="true"></inkscape:path-effect>
</defs>
<sodipodi:namedview  id="namedview6" inkscape:snap-grids="false" inkscape:current-layer="svg2" inkscape:window-maximized="1" inkscape:window-y="-4" inkscape:window-x="-4" inkscape:window-height="853" inkscape:window-width="1600" inkscape:pageshadow="2" inkscape:pageopacity="0" inkscape:cy="72.611158" inkscape:cx="41.589822" inkscape:zoom="2.9760108" showgrid="true" guidetolerance="10" gridtolerance="10" objecttolerance="10" borderopacity="1" bordercolor="#666666" pagecolor="#ffffff">
	<inkscape:grid  type="xygrid" id="grid3807"></inkscape:grid>
</sodipodi:namedview>
<path id="path3069" inkscape:connector-curvature="0" fill="#333333" d="M58.877,41.639c-0.594,0.515-0.672,1.417-0.156,2.01
	l8.018,9.223l0.014,0.016c1.387,1.577,3.766,1.755,5.338,0.388c1.572-1.365,1.744-3.76,0.374-5.353
	c-0.005-0.008-0.009-0.011-0.014-0.016l-8.018-9.223c-0.515-0.593-1.403-0.655-1.997-0.14L58.877,41.639L58.877,41.639z"/>
<path id="path3071" inkscape:connector-curvature="0" fill="#333333" d="M68.004,48.785c-1.545,1.408-1.641,3.803-0.219,5.362
	l12.288,13.486c0.528,0.581,1.435,0.607,2.015,0.079l3.486-3.178c0.58-0.528,0.622-1.418,0.094-1.998L73.379,49.05
	C71.957,47.49,69.549,47.378,68.004,48.785L68.004,48.785z"/>
<path id="rect3877-4" inkscape:connector-curvature="0" fill="#333333" d="M34.996,18.641l13.499-6.806
	c0.935-0.471,2.067-0.098,2.538,0.836l13.188,26.154c0.471,0.935,0.098,2.067-0.837,2.538L49.885,48.17
	c-0.935,0.472-2.067,0.099-2.538-0.836L34.16,21.179C33.688,20.245,34.061,19.112,34.996,18.641z"/>
<path id="path3879-9" inkscape:connector-curvature="0" fill="#333333" d="M46.06,7.771c0,3.914-3.173,7.086-7.086,7.086
	c-3.914,0-7.086-3.173-7.086-7.086s3.172-7.086,7.086-7.086C42.887,0.685,46.06,3.858,46.06,7.771z"/>
<path id="path3057" inkscape:connector-curvature="0" fill="#333333" d="M49.41,43.959c-0.785,0-1.436,0.63-1.436,1.415v12.22v0.022
	c0.011,2.1,1.69,3.794,3.772,3.794c2.084,0,3.783-1.694,3.795-3.794c0-0.008,0-0.016,0-0.022v-12.22
	c0-0.785-0.629-1.415-1.414-1.415H49.41z"/>
<path id="path3053" inkscape:connector-curvature="0" fill="#333333" d="M51.746,54.486c-2.089,0-3.772,1.705-3.772,3.816v18.244
	c0,0.785,0.651,1.416,1.436,1.416h4.717c0.785,0,1.414-0.631,1.414-1.416V58.303C55.541,56.191,53.836,54.486,51.746,54.486z"/>
<path id="path5054" inkscape:connector-curvature="0" fill="#333333" d="M36.069,19.533c-0.586-0.523-1.475-0.473-1.998,0.113
	l-8.325,9.323l-0.043,0.048c-0.823,0.972-0.725,2.428,0.231,3.282c0.956,0.854,2.414,0.787,3.287-0.14
	c0.014-0.016,0.029-0.033,0.043-0.048l8.325-9.323c0.523-0.585,0.473-1.475-0.113-1.998L36.069,19.533L36.069,19.533z"/>
<path id="path5050" inkscape:connector-curvature="0" fill="#333333" d="M28.519,29.404c-0.95-0.848-2.398-0.786-3.273,0.125
	c-0.02,0.021-0.038,0.042-0.057,0.064l-8.111,9.083c-0.523,0.585-0.473,1.475,0.113,1.998l1.407,1.256
	c0.585,0.523,1.475,0.473,1.998-0.113l8.111-9.083c0.02-0.021,0.039-0.042,0.057-0.064C29.57,31.698,29.468,30.252,28.519,29.404
	L28.519,29.404z"/>
<path id="path5088" inkscape:connector-curvature="0" fill="#333333" d="M48.169,14.709c-0.292,0.729,0.058,1.547,0.787,1.839
	l11.603,4.648l0.061,0.024c1.193,0.442,2.529-0.146,3.006-1.336s-0.082-2.538-1.252-3.042c-0.02-0.008-0.041-0.015-0.061-0.024
	L50.71,12.17c-0.729-0.292-1.547,0.059-1.839,0.788L48.169,14.709L48.169,14.709z"/>
<path id="path5090" inkscape:transform-center-x="-4.9678951" inkscape:transform-center-y="2.0143815" inkscape:connector-curvature="0" fill="#333333" d="
	M60.019,18.452c-0.465,1.186,0.098,2.522,1.255,3.025c0.027,0.012,0.053,0.021,0.08,0.032l11.34,4.442
	c0.73,0.286,1.547-0.07,1.833-0.801l0.688-1.757c0.285-0.731-0.07-1.547-0.802-1.833l-11.339-4.442
	c-0.027-0.011-0.053-0.022-0.08-0.032C61.803,16.667,60.482,17.267,60.019,18.452L60.019,18.452z"/>
<path id="path7137" inkscape:connector-curvature="0" fill="#333333" d="M62.141,88.541c0,5.603-4.541,10.145-10.144,10.145
	s-10.144-4.542-10.144-10.145c0-5.602,4.542-10.144,10.144-10.144S62.141,82.939,62.141,88.541z"/>
</svg>
