<?xml version="1.0" encoding="utf-8"?>
<!-- Generator: Adobe Illustrator 16.0.0, SVG Export Plug-In . SVG Version: 6.00 Build 0)  -->
<!DOCTYPE svg PUBLIC "-//W3C//DTD SVG 1.1//EN" "http://www.w3.org/Graphics/SVG/1.1/DTD/svg11.dtd">
<svg version="1.1" id="Layer_1" xmlns="http://www.w3.org/2000/svg" xmlns:xlink="http://www.w3.org/1999/xlink" x="0px" y="0px"
	 width="75px" height="75px" viewBox="0 0 75 75" enable-background="new 0 0 75 75" xml:space="preserve">
<path fill="#333333" d="M22.743,41.809c-0.178,0.452-0.115,0.711-0.115,0.711l0.233,3.366c-0.116,4.606-2.132,6.111-2.132,6.111
	l2.852,18.349c-3.243-1.169-6.284-2.732-9.065-4.628L13.33,52.48c0,0-0.638-0.321-1.905-0.905c-1.264-0.582-2.589-2.218-2.927-2.776
	c-0.331-0.563-1.114-2.13-3.019-3.568c-1.9-1.438-2.083-0.752-2.585-1.623c-0.504-0.871,0.76-1.42,0.76-1.42s3.513-0.685,6.482,3.02
	c0,0,0.09-0.023,0.25-0.046l0.042-0.142c-0.037,0.004-0.057,0.004-0.057,0.004c0.019-0.004,0.037-0.004,0.058-0.006l0.178-0.6
	c0,0,0.007-0.093,0.016-0.242c0.948-0.021,4.391,0.133,5.843,3.213c0.091,0.146,0.184,0.295,0.273,0.452
	c0,0-0.273-4.315-6.114-3.676c0.029-0.465,0.081-1.451,0.026-1.919c-0.074-0.622-0.345-1.225-0.345-1.225l-3.008-7.095
	c0,0-0.574-1.195,0.491-1.755c1.063-0.56,1.644,0.404,1.644,0.404s3.188,6.373,3.548,7.162c0.36,0.787,0.84-0.231,0.84-0.231
	l-1.148-8.515c0,0-0.332-1.391,1.162-1.703c1.494-0.309,1.625,1.904,1.625,1.904s1.005,7.331,1.14,8.182
	c0.137,0.85,0.603,0.029,0.603,0.029s1.124-7.051,1.233-7.798c0.113-0.747,0.345-1.572,1.448-1.537
	c1.103,0.034,0.952,2.413,0.952,2.413s-0.843,7.155-0.88,7.692c-0.036,0.538,0.315,0.396,0.315,0.396s2.671-5.508,2.89-5.9
	c0.22-0.395,0.649-1.245,1.733-0.807c1.083,0.436,0.007,2.829,0.007,2.829S22.924,41.355,22.743,41.809z M71.607,38.07
	c-0.916-0.628-1.489,0.074-1.772,0.391c-0.282,0.318-3.882,4.889-3.882,4.889s-0.354,0.057-0.212-0.432
	c0.146-0.49,2.386-6.954,2.386-6.954s0.623-2.179-0.391-2.438c-1.016-0.259-1.398,0.462-1.658,1.131
	c-0.249,0.667-2.729,6.981-2.729,6.981s-0.605,0.666-0.553-0.146c0.047-0.817,0.607-7.826,0.607-7.826s0.33-2.079-1.118-2.097
	c-1.452-0.015-1.423,1.343-1.423,1.343l-0.674,8.132c0,0-0.654,0.85-0.826,0.043s-1.832-7.368-1.832-7.368s-0.338-1.014-1.439-0.711
	c-1.104,0.302-0.814,1.528-0.814,1.528l1.345,7.193c0,0,0.13,0.609,0.071,1.205c-0.043,0.436-0.281,1.301-0.406,1.739
	c5.35,0.668,4.742,4.63,4.742,4.63c-0.053-0.166-0.108-0.326-0.166-0.479c-0.676-2.962-3.514-3.884-4.582-4.127
	c-0.043,0.145-0.07,0.241-0.07,0.241l-0.288,0.521c-0.021-0.003-0.036-0.006-0.06-0.008c0,0,0.021,0.002,0.06,0.008l-0.067,0.124
	c-0.153-0.011-0.244-0.011-0.244-0.011c-1.996-4.044-5.396-4.124-5.396-4.124s-1.286,0.255-0.997,1.164
	c0.288,0.912,0.602,0.313,2.07,2.033c1.473,1.722,1.879,3.338,2.074,3.927c0.197,0.587,1.092,2.378,2.15,3.173
	c1.055,0.797,1.58,1.229,1.58,1.229l-2.037,15.916c3.036-1.429,5.852-3.217,8.395-5.304l0.597-9.551c0,0,2.179-0.983,3.226-5.231
	l0.468-3.169c0,0-0.005-0.255,0.257-0.639c0.257-0.386,3.04-4.304,3.04-4.304S72.523,38.693,71.607,38.07z M56.684,12.909
	c-1.666-0.913-2.525,0.376-2.957,0.967s-5.804,8.975-5.804,8.975s-0.595,0.161-0.432-0.698c0.159-0.862,2.899-12.255,2.899-12.255
	s0.698-3.814-1.074-4.084c-1.771-0.268-2.311,1.021-2.631,2.205c-0.324,1.182-3.494,12.36-3.494,12.36s-0.914,1.237-0.967-0.161
	c-0.052-1.399-0.267-13.436-0.267-13.436s0.215-3.602-2.261-3.387c-2.472,0.216-2.203,2.528-2.203,2.528l0.214,13.973
	c0,0-0.968,1.557-1.398,0.215c-0.429-1.344-4.353-12.253-4.353-12.253s-0.753-1.667-2.58-0.969
	c-1.827,0.699-1.129,2.742-1.129,2.742l3.495,12.039c0,0,0.321,1.021,0.321,2.041c0,1.021-0.484,3.494-0.484,3.494l-0.049,0.111
	c9.526,0.112,9.132,7.114,9.132,7.114c-0.113-0.27-0.228-0.52-0.349-0.771c-1.732-5.229-7.211-6.162-8.792-6.323l-0.346,0.802
	c-0.033,0-0.063-0.001-0.097-0.001c0,0,0.033,0.001,0.095,0.005l-0.095,0.22c-0.262,0.008-0.412,0.027-0.412,0.027
	c-4.082-6.559-9.888-6.128-9.888-6.128s-2.15,0.646-1.5,2.15c0.645,1.504,1.074,0.432,3.869,3.116
	c2.794,2.688,3.762,5.376,4.192,6.342c0.43,0.97,2.258,3.871,4.192,5.05c1.932,1.185,2.901,1.829,2.901,1.829l-0.926,31.826
	c1.332,0.131,2.683,0.197,4.051,0.197c3.448,0,6.793-0.422,9.986-1.213l-1.073-30.164c0,0,3.549-2.041,4.623-9.459l0.268-5.483
	c0,0-0.053-0.431,0.32-1.129c0.377-0.696,4.461-7.845,4.461-7.845S58.35,13.823,56.684,12.909z"/>
</svg>
