<?xml version="1.0" encoding="utf-8"?>
<!-- Generator: Adobe Illustrator 16.0.0, SVG Export Plug-In . SVG Version: 6.00 Build 0)  -->
<!DOCTYPE svg PUBLIC "-//W3C//DTD SVG 1.1//EN" "http://www.w3.org/Graphics/SVG/1.1/DTD/svg11.dtd">
<svg version="1.1" id="Layer_1" xmlns="http://www.w3.org/2000/svg" xmlns:xlink="http://www.w3.org/1999/xlink" x="0px" y="0px"
	 width="42.308px" height="50px" viewBox="0 0 42.308 50" enable-background="new 0 0 42.308 50" xml:space="preserve">
<path fill="#333333" d="M39.667,24.284C42.15,7.221,32.264,0,21.154,0C10.052,0-0.154,7.158,2.604,24.238
	C1.017,25.526,0,27.775,0,30.461c0,3.599,3.448,6.686,6.118,7.668C8.619,46.45,17.735,50,21.154,50
	c3.41,0,12.484-3.527,15.016-11.798c2.972-0.942,6.138-4.31,6.138-7.741C42.308,27.869,41.25,25.602,39.667,24.284z M21.154,35.231
	c-1.402,0-2.539-1.138-2.539-2.539s1.137-2.539,2.539-2.539c1.4,0,2.539,1.138,2.539,2.539S22.555,35.231,21.154,35.231z
	 M23.107,27.014H19.08c0-5.498,4.803-5.95,4.803-8.8c0-1.808-1.196-2.8-2.646-2.8c-1.915,0-3.202,0.734-3.202,3.877h-4.572
	c0-5.198,3.814-7.814,7.751-7.814c4.629,0,7.724,2.464,7.724,6.301C28.937,23.257,23.107,22.504,23.107,27.014z"/>
</svg>
