<?xml version="1.0" encoding="utf-8"?>
<!-- Generator: Adobe Illustrator 16.0.0, SVG Export Plug-In . SVG Version: 6.00 Build 0)  -->
<!DOCTYPE svg PUBLIC "-//W3C//DTD SVG 1.1//EN" "http://www.w3.org/Graphics/SVG/1.1/DTD/svg11.dtd">
<svg version="1.1" id="Layer_1" xmlns="http://www.w3.org/2000/svg" xmlns:xlink="http://www.w3.org/1999/xlink" x="0px" y="0px"
	 width="50.4px" height="50.4px" viewBox="0 0 50.4 50.4" enable-background="new 0 0 50.4 50.4" xml:space="preserve">
<g id="Layer_1_1_">
	<path fill="#333333" d="M14.604,24.508c-0.343,0-0.638-0.258-0.677-0.605c-0.063-0.559-0.096-1.133-0.097-1.708
		c0-7.592,5.672-14.037,13.19-14.993c0.366-0.042,0.716,0.217,0.765,0.591c0.048,0.373-0.217,0.715-0.59,0.763
		c-6.843,0.869-12.001,6.732-12.001,13.64c0.001,0.524,0.03,1.047,0.088,1.555c0.042,0.375-0.227,0.711-0.601,0.754
		C14.655,24.505,14.63,24.508,14.604,24.508L14.604,24.508z"/>
	<path fill="#333333" d="M18.792,20.904c-0.042,0-0.086-0.002-0.129-0.012c-0.37-0.07-0.612-0.43-0.54-0.799
		c0.746-3.871,3.533-7.067,7.272-8.341c0.357-0.125,0.742,0.068,0.866,0.427c0.119,0.355-0.07,0.742-0.429,0.864
		c-3.275,1.116-5.719,3.917-6.373,7.31C19.398,20.677,19.113,20.904,18.792,20.904L18.792,20.904z"/>
	<path fill="#333333" d="M45.454,20.059c0.151-0.713-0.304-1.419-1.021-1.573c0,0,0,0-0.001,0l-7.786-1.652
		c1.09-0.471,1.847-1.561,1.838-2.825c-0.011-1.69-1.388-3.054-3.078-3.042c-1.693,0.012-3.054,1.392-3.044,3.08
		c0.009,0.876,0.385,1.656,0.97,2.208c-0.107-0.011-0.222-0.021-0.325-0.021c-2.175,0.015-3.694,0.889-3.694,0.889l-5.442,2.824
		c-0.753,0.438-1.294,1.201-1.438,2.096l0.065,4.99l-5.034,2.313c-0.566,0.27-0.967,0.843-0.988,1.51
		c-0.035,0.967,0.718,1.773,1.684,1.809c0.297,0.011,0.584-0.056,0.834-0.18l6.153-2.834c0.446-0.237,0.772-0.668,0.88-1.177
		l-0.037-3.111l4.316,3.811l-0.745,6.546c-0.003,0.037-0.011,0.076-0.011,0.122c-0.029,0.958,0.721,1.77,1.685,1.804
		c0.904,0.03,1.676-0.638,1.792-1.517l0.869-7.469c0.003-0.032,0.009-0.063,0.009-0.095c0.018-0.528-0.2-1.006-0.549-1.336
		l-3.457-3.364l5.417-3.119l5.332,5.567c0.246,0.237,0.585,0.382,0.956,0.38c0.738-0.016,1.334-0.622,1.322-1.368
		c-0.004-0.396-0.187-0.754-0.463-0.998l-3.84-4.358l5.258,1.116C44.599,21.235,45.303,20.776,45.454,20.059z"/>
</g>
<g id="Layer_2">
	<path fill="#333333" d="M44.743,47.401H5.788c-0.833-0.017-1.299-0.249-1.38-0.459c-0.097-0.253,0.077-0.957,0.953-1.771
		c0.041-0.036,0.078-0.074,0.113-0.116l4.908-5.652c3.162,1.882,6.84,2.982,10.779,2.982c0.477,0,6.989,0,7.273,0
		c11.669,0,21.157-9.49,21.157-21.159s-9.488-21.16-21.157-21.16c-1.353,0-6.159,0-7.273,0C9.493,0.065,0,9.558,0,21.226
		c0,6.646,3.088,12.581,7.897,16.462l-4.64,5.342c-1.637,1.547-2.255,3.405-1.652,4.98c0.564,1.482,2.07,2.354,4.156,2.39h38.981
		c0.828,0,1.499-0.671,1.499-1.499C46.242,48.072,45.571,47.401,44.743,47.401z M9.081,34.746h3.094
		c1.296,1.555,2.807,2.923,4.491,4.054C13.803,38.066,11.218,36.659,9.081,34.746z M4.859,29.176h3.978
		c0.363,0.892,0.789,1.746,1.264,2.571h-3.6c-0.035,0-0.064,0.019-0.099,0.021C5.818,30.95,5.304,30.085,4.859,29.176z M3.505,17.05
		c0.043,0.004,0.081,0.025,0.126,0.025h4.057c-0.2,1.001-0.308,2.034-0.36,3.079H3.054C3.118,19.093,3.266,18.055,3.505,17.05z
		 M6.191,10.966h3.75c-0.551,0.989-1.01,2.031-1.398,3.108H4.473C4.945,12.979,5.522,11.939,6.191,10.966z M7.371,23.154
		c0.094,1.034,0.274,2.038,0.511,3.022H3.704c-0.276-0.979-0.487-1.985-0.598-3.022H7.371z M46.594,21.226
		c0,10.013-8.146,18.161-18.159,18.161v-0.044h-0.834c-9.626-0.439-17.328-8.386-17.328-18.117c0-10.015,8.146-18.16,18.162-18.16
		C38.449,3.066,46.594,11.212,46.594,21.226z M11.943,7.997c-0.054-0.005-0.103-0.032-0.159-0.032H8.793
		c2.191-2.043,4.88-3.546,7.868-4.312C14.876,4.854,13.288,6.324,11.943,7.997z"/>
</g>
</svg>
