<?xml version="1.0" encoding="utf-8"?>
<!-- Generator: Adobe Illustrator 16.0.0, SVG Export Plug-In . SVG Version: 6.00 Build 0)  -->
<!DOCTYPE svg PUBLIC "-//W3C//DTD SVG 1.1//EN" "http://www.w3.org/Graphics/SVG/1.1/DTD/svg11.dtd">
<svg version="1.1" id="Layer_1" xmlns="http://www.w3.org/2000/svg" xmlns:xlink="http://www.w3.org/1999/xlink" x="0px" y="0px"
	 width="100px" height="100px" viewBox="0 0 100 100" enable-background="new 0 0 100 100" xml:space="preserve">
<g id="Captions">
</g>
<g id="Your_Icon">
	<g>
		<g id="XMLID_2_">
			<g>
				<path fill="#333333" d="M99.082,24.697v7.389c-0.625,1.237-1.669,2.223-2.912,2.731c-2.354,0.992-4.779,0.047-6.706-2.585
					v-8.013h-2.918v8.276l-0.17-0.076c-0.853,1.874-2.62,3.187-4.499,3.344c-1.914,0.163-3.725-0.852-5.253-2.947v-8.013h-2.918
					v7.114l-0.175-0.082c-0.842,1.861-2.598,3.175-4.465,3.344c-1.933,0.175-3.748-0.846-5.282-2.947v-8.013h-2.918v8.369
					c-0.979,1.535-2.58,2.521-4.249,2.603c-1.855,0.088-3.605-0.928-5.09-2.959v-8.013H48.61v8.369
					c-0.986,1.523-2.626,2.539-4.272,2.609c-1.85,0.07-3.589-0.939-5.066-2.965v-8.013h-2.918v7.698l-0.175-0.082
					c-0.846,1.873-2.614,3.187-4.494,3.344c-1.915,0.164-3.724-0.852-5.253-2.947v-8.013h-2.918v8.801
					c-0.899,1.745-2.603,2.941-4.412,3.076c-2.008,0.152-3.893-0.992-5.457-3.297v-8.58h-2.918v8.795
					c-0.735,1.424-2.054,2.527-3.508,2.93c-1.4,0.385-2.825,0.111-4.12-0.793c-0.771-0.537-1.5-1.29-2.166-2.241v-8.422l6.392-16.57
					h84.876l6.729,16.837L99.082,24.697z"/>
				<path fill="#333333" d="M95.275,38.062V88.48H84.089V48.305H55.795V88.48H3.724V38.675c0.741,0.233,1.5,0.35,2.264,0.35
					c0.671,0,1.343-0.087,2.002-0.269c1.692-0.467,3.222-1.5,4.342-2.895c2.34,2.632,4.827,3.163,6.449,3.163
					c0.187,0,0.368-0.006,0.537-0.018c2.381-0.175,4.628-1.5,6.082-3.507c2.177,2.153,4.412,2.615,5.918,2.615
					c0.222,0,0.426-0.012,0.613-0.029c2.218-0.187,4.319-1.377,5.76-3.175c1.838,2.083,4.08,3.204,6.443,3.204
					c0.111,0,0.222,0,0.327-0.006c2.194-0.094,4.29-1.156,5.784-2.872c1.786,1.874,3.909,2.877,6.151,2.877
					c0.123,0,0.244,0,0.367-0.006c2.172-0.111,4.242-1.167,5.736-2.86c2.253,2.37,4.6,2.866,6.169,2.866
					c0.239,0,0.461-0.012,0.66-0.029c2.071-0.187,4.044-1.255,5.457-2.877c2.422,2.913,5.03,3.49,6.723,3.49
					c0.222,0,0.427-0.012,0.613-0.029c2.346-0.198,4.563-1.523,6.011-3.502c1.611,1.693,3.76,2.959,6.21,2.959
					C94.646,38.126,94.962,38.109,95.275,38.062z M44.052,67.846V48.305H14.001v19.541H44.052z"/>
			</g>
		</g>
	</g>
</g>
</svg>
