<?xml version="1.0" encoding="utf-8"?>
<!-- Generator: Adobe Illustrator 16.0.0, SVG Export Plug-In . SVG Version: 6.00 Build 0)  -->
<!DOCTYPE svg PUBLIC "-//W3C//DTD SVG 1.1//EN" "http://www.w3.org/Graphics/SVG/1.1/DTD/svg11.dtd">
<svg version="1.1" id="Layer_1" xmlns="http://www.w3.org/2000/svg" xmlns:xlink="http://www.w3.org/1999/xlink" x="0px" y="0px"
	 viewBox="0 0 200 200" style="enable-background:new 0 0 200 200;" xml:space="preserve">
<style type="text/css">
<![CDATA[
	.st0{fill:none;stroke:#445D57;stroke-width:9.2;stroke-miterlimit:10;}
	.st1{fill:#445D57;}
]]>
</style>
<g>
	<path class="st0" d="M191.1,161.3c0,16.9-13.8,30.7-30.7,30.7H37.8c-16.9,0-30.7-13.8-30.7-30.7V38.7C7.1,21.8,20.9,8,37.8,8h122.7
		c16.9,0,30.7,13.8,30.7,30.7V161.3z"/>
</g>
<path class="st1" d="M83,190.6c-5.9,0-11.4-2.7-15-7.4l-48.1-63.6c-6.3-8.3-4.6-20,3.6-26.3c8.3-6.3,20-4.6,26.3,3.6l31.7,41.8
	l79.6-127.8c5.5-8.8,17.1-11.5,25.9-6c8.8,5.5,11.5,17.1,6,25.9L99,181.7c-3.3,5.3-8.9,8.6-15.1,8.8C83.6,190.6,83.3,190.6,83,190.6
	z"/>
</svg>
