<?xml version="1.0" encoding="utf-8"?>
<!-- Generator: Adobe Illustrator 16.0.0, SVG Export Plug-In . SVG Version: 6.00 Build 0)  -->
<!DOCTYPE svg PUBLIC "-//W3C//DTD SVG 1.1//EN" "http://www.w3.org/Graphics/SVG/1.1/DTD/svg11.dtd">
<svg version="1.1" id="Layer_1" xmlns="http://www.w3.org/2000/svg" xmlns:xlink="http://www.w3.org/1999/xlink" x="0px" y="0px"
	 width="200px" height="200px" viewBox="0 0 200 200" enable-background="new 0 0 200 200" xml:space="preserve">
<g>
	<g>
		<g>
			<path fill="none" stroke="#FFFFFF" stroke-width="2.9438" stroke-miterlimit="10" d="M77.057,189.9
				c-5.573,0-10.884-2.613-14.28-7.053l-45.799-60.514c-5.92-7.837-4.44-19.068,3.483-24.99c7.836-6.008,19.068-4.44,24.989,3.483
				l30.126,39.791l75.751-121.637c5.225-8.359,16.195-10.884,24.641-5.747c8.359,5.224,10.971,16.195,5.746,24.641L92.207,181.541
				c-3.134,4.963-8.446,8.098-14.366,8.445C77.58,189.9,77.318,189.9,77.057,189.9z"/>
		</g>
	</g>
	<g>
		<g>
			<path fill="none" stroke="#FFFFFF" stroke-width="10" stroke-miterlimit="10" d="M77.057,189.9
				c-5.573,0-10.884-2.613-14.28-7.053l-45.799-60.514c-5.92-7.837-4.44-19.068,3.483-24.99c7.836-6.008,19.068-4.44,24.989,3.483
				l30.126,39.791l75.751-121.637c5.225-8.359,16.195-10.884,24.641-5.747c8.359,5.224,10.971,16.195,5.746,24.641L92.207,181.541
				c-3.134,4.963-8.446,8.098-14.366,8.445C77.58,189.9,77.318,189.9,77.057,189.9z"/>
		</g>
	</g>
</g>
</svg>
