<?xml version="1.0" encoding="utf-8"?>
<!-- Generator: Adobe Illustrator 16.0.0, SVG Export Plug-In . SVG Version: 6.00 Build 0)  -->
<!DOCTYPE svg PUBLIC "-//W3C//DTD SVG 1.1//EN" "http://www.w3.org/Graphics/SVG/1.1/DTD/svg11.dtd">
<svg version="1.1" id="Layer_1" xmlns="http://www.w3.org/2000/svg" xmlns:xlink="http://www.w3.org/1999/xlink" x="0px" y="0px"
	 viewBox="0 0 200 200" enable-background="new 0 0 200 200" xml:space="preserve">
<g>
	<path fill="#425C56" d="M100,2.839c-49.695,0-89.98,36.619-89.98,81.8c0,21.696,9.362,41.38,24.54,56.022v25.778
		c0,13.557,10.984,24.539,24.54,24.539c7.118,0,13.468-3.074,17.95-7.908c3.45,9.371,12.382,16.09,22.95,16.09
		c10.568,0,19.5-6.719,22.95-16.088c4.481,4.832,10.832,7.908,17.95,7.908c13.556,0,24.539-10.983,24.539-24.541v-25.785
		c15.17-14.643,24.541-34.318,24.541-56.015C189.98,39.458,149.68,2.839,100,2.839z M63.19,109.18
		c-15.817,0-28.63-12.821-28.63-28.63c0-15.809,12.813-28.63,28.63-28.63s28.63,12.821,28.63,28.63
		C91.82,96.359,79.007,109.18,63.19,109.18z M109.202,142.923H90.797c-4.498,0-6.534-3.291-4.521-7.317l10.065-20.131
		c2.013-4.024,5.304-4.024,7.317,0l10.064,20.131C115.736,139.632,113.7,142.923,109.202,142.923z M136.811,109.18
		c-15.816,0-28.631-12.821-28.631-28.63c0-15.809,12.813-28.63,28.631-28.63c15.816,0,28.631,12.821,28.631,28.63
		C165.439,96.359,152.627,109.18,136.811,109.18z"/>
</g>
</svg>
