<?xml version="1.0" encoding="utf-8"?>
<!-- Generator: Adobe Illustrator 16.0.0, SVG Export Plug-In . SVG Version: 6.00 Build 0)  -->
<!DOCTYPE svg PUBLIC "-//W3C//DTD SVG 1.1//EN" "http://www.w3.org/Graphics/SVG/1.1/DTD/svg11.dtd">
<svg version="1.1" id="Layer_1" xmlns="http://www.w3.org/2000/svg" xmlns:xlink="http://www.w3.org/1999/xlink" x="0px" y="0px"
	  viewBox="0 0 200 200" style="enable-background:new 0 0 200 200;" xml:space="preserve">
<style type="text/css">
<![CDATA[
	.st0{fill:#FFFFFF;}
]]>
</style>
<path class="st0" d="M99.9,2.6c-54.1,0-98,43.9-98,98c0,54.1,43.9,98,98,98s98-43.9,98-98C197.9,46.5,154,2.6,99.9,2.6z M144.9,67.2
	L97,144.1c-1.7,2.7-4.5,4.4-7.7,4.5c-0.1,0-0.3,0-0.4,0c-3,0-5.8-1.4-7.6-3.8l-24.5-32.4c-3.2-4.2-2.4-10.2,1.9-13.4
	c4.2-3.2,10.2-2.4,13.4,1.9l16.1,21.3l40.6-65.1c2.8-4.5,8.7-5.8,13.2-3.1C146.3,56.8,147.7,62.7,144.9,67.2z"/>
</svg>
