<?xml version="1.0" encoding="utf-8"?>
<!-- Generator: Adobe Illustrator 16.0.0, SVG Export Plug-In . SVG Version: 6.00 Build 0)  -->
<!DOCTYPE svg PUBLIC "-//W3C//DTD SVG 1.1//EN" "http://www.w3.org/Graphics/SVG/1.1/DTD/svg11.dtd">
<svg version="1.1" id="Layer_1" xmlns="http://www.w3.org/2000/svg" xmlns:xlink="http://www.w3.org/1999/xlink" x="0px" y="0px"
	 viewBox="0 0 200 200" style="enable-background:new 0 0 200 200;" xml:space="preserve">
<style type="text/css">
<![CDATA[
	.st0{fill:none;stroke:#5E5E5E;stroke-width:0.259;stroke-miterlimit:10;}
	.st1{fill:none;stroke:#5E5E5E;stroke-width:2.5903;stroke-miterlimit:10;}
	.st2{fill:#5D5D5D;}
	.st3{fill:#FFFFFF;}
	.st4{fill:none;stroke:#D2CECD;stroke-width:11.0661;stroke-linecap:round;stroke-linejoin:round;stroke-miterlimit:10;}
]]>
</style>
<g>
	<circle class="st3" cx="100" cy="100" r="97.3"/>
	<path class="st4" d="M157.7,68C79.2,99.5,111,14.8,50.1,59.4L44.3,64l32.1,111.6H82l-17.9-61c54.3-45.6,32.3,49.6,96.6-43.8
		C162.3,68.6,160.3,67,157.7,68z"/>
	<g>
		<g>
			<path class="st2" d="M27.5,104.2h6.8v1h-7.9V91.5h1.1V104.2z"/>
			<path class="st2" d="M44,101.4h-6.3l-1.4,3.8h-1.2l5.2-13.7h1.1l5.2,13.7h-1.2L44,101.4z M38.1,100.4h5.5L40.9,93h-0.1
				L38.1,100.4z"/>
			<path class="st2" d="M58,91.5v9.3c0,1.5-0.5,2.6-1.4,3.4c-0.9,0.8-2.1,1.2-3.6,1.2c-1.4,0-2.6-0.4-3.5-1.2
				c-0.9-0.8-1.3-1.9-1.3-3.4v-9.3h1.1v9.3c0,1.2,0.3,2.1,1,2.7c0.7,0.6,1.6,1,2.7,1c1.1,0,2-0.3,2.7-0.9c0.7-0.6,1.1-1.5,1.1-2.7
				v-9.3H58z"/>
			<path class="st2" d="M71.4,105.2h-1.1l-7.8-11.7l-0.1,0v11.7h-1.1V91.5h1.1l7.8,11.7l0.1,0V91.5h1.1V105.2z"/>
			<path class="st2" d="M84.4,100.9L84.4,100.9c-0.1,1.4-0.6,2.5-1.4,3.3c-0.9,0.8-2,1.2-3.4,1.2c-1.5,0-2.7-0.5-3.7-1.6
				c-0.9-1.1-1.4-2.5-1.4-4.3v-2.2c0-1.7,0.5-3.2,1.4-4.3c0.9-1.1,2.2-1.7,3.7-1.7c1.5,0,2.6,0.4,3.5,1.2c0.9,0.8,1.3,1.9,1.5,3.2
				l0,0.1h-1.1c-0.2-1.1-0.5-2-1.2-2.6c-0.6-0.6-1.5-0.9-2.7-0.9c-1.2,0-2.2,0.5-2.9,1.4c-0.7,0.9-1.1,2.1-1.1,3.6v2.2
				c0,1.5,0.4,2.7,1.1,3.6c0.7,0.9,1.7,1.4,2.9,1.4c1.2,0,2-0.3,2.7-0.9c0.6-0.6,1-1.5,1.2-2.6H84.4z"/>
			<path class="st2" d="M97.3,105.2h-1.1v-6.3h-7.8v6.3h-1.1V91.5h1.1v6.4h7.8v-6.4h1.1V105.2z"/>
			<path class="st2" d="M112.9,101.4h-6.3l-1.4,3.8h-1.2l5.2-13.7h1.1l5.2,13.7h-1.2L112.9,101.4z M107,100.4h5.5l-2.7-7.4h-0.1
				L107,100.4z"/>
			<path class="st2" d="M126.9,100.9L126.9,100.9c-0.1,1.4-0.6,2.5-1.4,3.3c-0.9,0.8-2,1.2-3.4,1.2c-1.5,0-2.7-0.5-3.7-1.6
				c-0.9-1.1-1.4-2.5-1.4-4.3v-2.2c0-1.7,0.5-3.2,1.4-4.3c0.9-1.1,2.2-1.7,3.7-1.7c1.5,0,2.6,0.4,3.5,1.2c0.9,0.8,1.3,1.9,1.5,3.2
				l0,0.1h-1.1c-0.2-1.1-0.5-2-1.2-2.6c-0.6-0.6-1.5-0.9-2.7-0.9c-1.2,0-2.2,0.5-2.9,1.4c-0.7,0.9-1.1,2.1-1.1,3.6v2.2
				c0,1.5,0.4,2.7,1.1,3.6c0.7,0.9,1.7,1.4,2.9,1.4c1.2,0,2-0.3,2.7-0.9c0.6-0.6,1-1.5,1.2-2.6H126.9z"/>
			<path class="st2" d="M138.7,92.5H134v12.7h-1.1V92.5h-4.7v-1h10.5V92.5z"/>
			<path class="st2" d="M142.3,105.2h-1.1V91.5h1.1V105.2z"/>
			<path class="st2" d="M149.9,102.9l0.3,0.9h0.1l0.3-0.9l4.1-11.4h1.2l-5.1,13.7h-1.1l-5.1-13.7h1.2L149.9,102.9z"/>
			<path class="st2" d="M159.3,105.2h-1.1V91.5h1.1V105.2z"/>
			<path class="st2" d="M172,92.5h-4.7v12.7h-1.1V92.5h-4.7v-1H172V92.5z"/>
			<path class="st2" d="M178.4,99.1l4.2-7.6h1.3l-5,8.7v5h-1.1v-5.1l-4.9-8.6h1.3L178.4,99.1z"/>
		</g>
		<g>
			<path class="st2" d="M27.5,104.2h6.8v1h-7.9V91.5h1.1V104.2z"/>
			<path class="st2" d="M44,101.4h-6.3l-1.4,3.8h-1.2l5.2-13.7h1.1l5.2,13.7h-1.2L44,101.4z M38.1,100.4h5.5L40.9,93h-0.1
				L38.1,100.4z"/>
			<path class="st2" d="M58,91.5v9.3c0,1.5-0.5,2.6-1.4,3.4c-0.9,0.8-2.1,1.2-3.6,1.2c-1.4,0-2.6-0.4-3.5-1.2
				c-0.9-0.8-1.3-1.9-1.3-3.4v-9.3h1.1v9.3c0,1.2,0.3,2.1,1,2.7c0.7,0.6,1.6,1,2.7,1c1.1,0,2-0.3,2.7-0.9c0.7-0.6,1.1-1.5,1.1-2.7
				v-9.3H58z"/>
			<path class="st2" d="M71.4,105.2h-1.1l-7.8-11.7l-0.1,0v11.7h-1.1V91.5h1.1l7.8,11.7l0.1,0V91.5h1.1V105.2z"/>
			<path class="st2" d="M84.4,100.9L84.4,100.9c-0.1,1.4-0.6,2.5-1.4,3.3c-0.9,0.8-2,1.2-3.4,1.2c-1.5,0-2.7-0.5-3.7-1.6
				c-0.9-1.1-1.4-2.5-1.4-4.3v-2.2c0-1.7,0.5-3.2,1.4-4.3c0.9-1.1,2.2-1.7,3.7-1.7c1.5,0,2.6,0.4,3.5,1.2c0.9,0.8,1.3,1.9,1.5,3.2
				l0,0.1h-1.1c-0.2-1.1-0.5-2-1.2-2.6c-0.6-0.6-1.5-0.9-2.7-0.9c-1.2,0-2.2,0.5-2.9,1.4c-0.7,0.9-1.1,2.1-1.1,3.6v2.2
				c0,1.5,0.4,2.7,1.1,3.6c0.7,0.9,1.7,1.4,2.9,1.4c1.2,0,2-0.3,2.7-0.9c0.6-0.6,1-1.5,1.2-2.6H84.4z"/>
			<path class="st2" d="M97.3,105.2h-1.1v-6.3h-7.8v6.3h-1.1V91.5h1.1v6.4h7.8v-6.4h1.1V105.2z"/>
			<path class="st2" d="M112.9,101.4h-6.3l-1.4,3.8h-1.2l5.2-13.7h1.1l5.2,13.7h-1.2L112.9,101.4z M107,100.4h5.5l-2.7-7.4h-0.1
				L107,100.4z"/>
			<path class="st2" d="M126.9,100.9L126.9,100.9c-0.1,1.4-0.6,2.5-1.4,3.3c-0.9,0.8-2,1.2-3.4,1.2c-1.5,0-2.7-0.5-3.7-1.6
				c-0.9-1.1-1.4-2.5-1.4-4.3v-2.2c0-1.7,0.5-3.2,1.4-4.3c0.9-1.1,2.2-1.7,3.7-1.7c1.5,0,2.6,0.4,3.5,1.2c0.9,0.8,1.3,1.9,1.5,3.2
				l0,0.1h-1.1c-0.2-1.1-0.5-2-1.2-2.6c-0.6-0.6-1.5-0.9-2.7-0.9c-1.2,0-2.2,0.5-2.9,1.4c-0.7,0.9-1.1,2.1-1.1,3.6v2.2
				c0,1.5,0.4,2.7,1.1,3.6c0.7,0.9,1.7,1.4,2.9,1.4c1.2,0,2-0.3,2.7-0.9c0.6-0.6,1-1.5,1.2-2.6H126.9z"/>
			<path class="st2" d="M138.7,92.5H134v12.7h-1.1V92.5h-4.7v-1h10.5V92.5z"/>
			<path class="st2" d="M142.3,105.2h-1.1V91.5h1.1V105.2z"/>
			<path class="st2" d="M149.9,102.9l0.3,0.9h0.1l0.3-0.9l4.1-11.4h1.2l-5.1,13.7h-1.1l-5.1-13.7h1.2L149.9,102.9z"/>
			<path class="st2" d="M159.3,105.2h-1.1V91.5h1.1V105.2z"/>
			<path class="st2" d="M172,92.5h-4.7v12.7h-1.1V92.5h-4.7v-1H172V92.5z"/>
			<path class="st2" d="M178.4,99.1l4.2-7.6h1.3l-5,8.7v5h-1.1v-5.1l-4.9-8.6h1.3L178.4,99.1z"/>
		</g>
		<g>
			<path class="st0" d="M27.5,104.2h6.8v1h-7.9V91.5h1.1V104.2z"/>
			<path class="st0" d="M44,101.4h-6.3l-1.4,3.8h-1.2l5.2-13.7h1.1l5.2,13.7h-1.2L44,101.4z M38.1,100.4h5.5L40.9,93h-0.1
				L38.1,100.4z"/>
			<path class="st0" d="M58,91.5v9.3c0,1.5-0.5,2.6-1.4,3.4c-0.9,0.8-2.1,1.2-3.6,1.2c-1.4,0-2.6-0.4-3.5-1.2
				c-0.9-0.8-1.3-1.9-1.3-3.4v-9.3h1.1v9.3c0,1.2,0.3,2.1,1,2.7c0.7,0.6,1.6,1,2.7,1c1.1,0,2-0.3,2.7-0.9c0.7-0.6,1.1-1.5,1.1-2.7
				v-9.3H58z"/>
			<path class="st0" d="M71.4,105.2h-1.1l-7.8-11.7l-0.1,0v11.7h-1.1V91.5h1.1l7.8,11.7l0.1,0V91.5h1.1V105.2z"/>
			<path class="st0" d="M84.4,100.9L84.4,100.9c-0.1,1.4-0.6,2.5-1.4,3.3c-0.9,0.8-2,1.2-3.4,1.2c-1.5,0-2.7-0.5-3.7-1.6
				c-0.9-1.1-1.4-2.5-1.4-4.3v-2.2c0-1.7,0.5-3.2,1.4-4.3c0.9-1.1,2.2-1.7,3.7-1.7c1.5,0,2.6,0.4,3.5,1.2c0.9,0.8,1.3,1.9,1.5,3.2
				l0,0.1h-1.1c-0.2-1.1-0.5-2-1.2-2.6c-0.6-0.6-1.5-0.9-2.7-0.9c-1.2,0-2.2,0.5-2.9,1.4c-0.7,0.9-1.1,2.1-1.1,3.6v2.2
				c0,1.5,0.4,2.7,1.1,3.6c0.7,0.9,1.7,1.4,2.9,1.4c1.2,0,2-0.3,2.7-0.9c0.6-0.6,1-1.5,1.2-2.6H84.4z"/>
			<path class="st0" d="M97.3,105.2h-1.1v-6.3h-7.8v6.3h-1.1V91.5h1.1v6.4h7.8v-6.4h1.1V105.2z"/>
			<path class="st0" d="M112.9,101.4h-6.3l-1.4,3.8h-1.2l5.2-13.7h1.1l5.2,13.7h-1.2L112.9,101.4z M107,100.4h5.5l-2.7-7.4h-0.1
				L107,100.4z"/>
			<path class="st0" d="M126.9,100.9L126.9,100.9c-0.1,1.4-0.6,2.5-1.4,3.3c-0.9,0.8-2,1.2-3.4,1.2c-1.5,0-2.7-0.5-3.7-1.6
				c-0.9-1.1-1.4-2.5-1.4-4.3v-2.2c0-1.7,0.5-3.2,1.4-4.3c0.9-1.1,2.2-1.7,3.7-1.7c1.5,0,2.6,0.4,3.5,1.2c0.9,0.8,1.3,1.9,1.5,3.2
				l0,0.1h-1.1c-0.2-1.1-0.5-2-1.2-2.6c-0.6-0.6-1.5-0.9-2.7-0.9c-1.2,0-2.2,0.5-2.9,1.4c-0.7,0.9-1.1,2.1-1.1,3.6v2.2
				c0,1.5,0.4,2.7,1.1,3.6c0.7,0.9,1.7,1.4,2.9,1.4c1.2,0,2-0.3,2.7-0.9c0.6-0.6,1-1.5,1.2-2.6H126.9z"/>
			<path class="st0" d="M138.7,92.5H134v12.7h-1.1V92.5h-4.7v-1h10.5V92.5z"/>
			<path class="st0" d="M142.3,105.2h-1.1V91.5h1.1V105.2z"/>
			<path class="st0" d="M149.9,102.9l0.3,0.9h0.1l0.3-0.9l4.1-11.4h1.2l-5.1,13.7h-1.1l-5.1-13.7h1.2L149.9,102.9z"/>
			<path class="st0" d="M159.3,105.2h-1.1V91.5h1.1V105.2z"/>
			<path class="st0" d="M172,92.5h-4.7v12.7h-1.1V92.5h-4.7v-1H172V92.5z"/>
			<path class="st0" d="M178.4,99.1l4.2-7.6h1.3l-5,8.7v5h-1.1v-5.1l-4.9-8.6h1.3L178.4,99.1z"/>
		</g>
	</g>
	<line class="st1" x1="24.3" y1="110.9" x2="185.5" y2="110.9"/>
</g>
</svg>
