<?xml version="1.0" encoding="utf-8"?>
<!-- Generator: Adobe Illustrator 16.0.0, SVG Export Plug-In . SVG Version: 6.00 Build 0)  -->
<!DOCTYPE svg PUBLIC "-//W3C//DTD SVG 1.1//EN" "http://www.w3.org/Graphics/SVG/1.1/DTD/svg11.dtd">
<svg version="1.1" id="Layer_1" xmlns="http://www.w3.org/2000/svg" xmlns:xlink="http://www.w3.org/1999/xlink" x="0px" y="0px"
	 width="965.797px" height="1080px" viewBox="0 0 965.797 1080" enable-background="new 0 0 965.797 1080" xml:space="preserve">
<path fill="#435D57" d="M726.846,798.473v-92.516c18.284-8.598,35.395-20.465,50.491-35.602c70.354-70.314,70.354-184.586,0-254.941
	c-15.097-15.056-32.207-26.923-50.491-35.52v-93.203c41.125,12.23,79.875,34.592,112.374,67.045
	c104.261,104.222,104.261,273.43,0,377.69C806.721,763.921,767.971,786.242,726.846,798.473z M54.816,746.687v-408.45
	c0-33.098,26.879-59.699,59.736-59.699h90.5v527.806h-90.5C81.695,806.344,54.816,779.742,54.816,746.687z M560.137,1029.923
	L309.515,836.416l0.079-587.667L560.137,54.96c44.884-34.674,81.095-16.873,81.095,39.718v895.526
	C641.231,1046.794,604.82,1064.597,560.137,1029.923z"/>
</svg>
