<?xml version="1.0" encoding="utf-8"?>
<!-- Generator: Adobe Illustrator 16.0.0, SVG Export Plug-In . SVG Version: 6.00 Build 0)  -->
<!DOCTYPE svg PUBLIC "-//W3C//DTD SVG 1.1//EN" "http://www.w3.org/Graphics/SVG/1.1/DTD/svg11.dtd">
<svg version="1.1" id="Layer_1" xmlns="http://www.w3.org/2000/svg" xmlns:xlink="http://www.w3.org/1999/xlink" x="0px" y="0px"
	viewBox="0 0 200 200" enable-background="new 0 0 200 200" xml:space="preserve">
<path fill="#435D57" d="M164.94,73.526c0-17.242-11.8-31.74-27.735-35.956C136.04,18.079,119.86,2.563,100.079,2.563
	c-20.525,0-37.228,16.7-37.228,37.234c0,0.856,0.077,1.712,0.139,2.571C47.973,47.168,37.06,61.249,37.06,77.838
	c0,8.742,3.094,17.239,8.71,23.935c0.25,0.293,0.533,0.537,0.811,0.775l47.449,91.044c1.051,2.023,3.142,3.295,5.425,3.295
	c2.283,0,4.37-1.271,5.425-3.295l47.904-91.932c0.183-0.348,0.288-0.717,0.398-1.086C160.542,93.605,164.94,83.836,164.94,73.526z
	 M100.079,14.805c12.635,0,23.077,9.423,24.741,21.607c-10.284,0.777-19.565,5.696-25.94,13.541
	c-6.37-5.622-14.654-9.1-23.749-9.306c-0.005-0.286-0.043-0.566-0.043-0.849C75.088,26.012,86.298,14.805,100.079,14.805z
	 M74.287,52.845c13.786,0,24.996,11.212,24.996,24.994c0,3.379,2.739,6.121,6.121,6.121c3.377,0,6.121-2.742,6.121-6.121
	c0-6.548-1.713-12.692-4.691-18.045c4.585-7.013,12.313-11.26,20.87-11.26c13.781,0,24.991,11.212,24.991,24.991
	c0,7.438-3.401,14.465-9.027,19.182H54.232c-3.18-4.286-4.931-9.502-4.931-14.872C49.296,64.06,60.516,52.845,74.287,52.845z
	 M124.59,129.278l-5.069-9.728l4.897-9.397l5.064,9.728L124.59,129.278z M116.187,145.396l-5.065-9.729l4.95-9.507l5.07,9.728
	L116.187,145.396z M107.658,161.771l-5.07-9.728l5.084-9.756l5.07,9.732L107.658,161.771z M85.852,151.42l4.753-9.128l5.084,9.756
	l-4.758,9.124L85.852,151.42z M77.448,135.293l4.753-9.123l4.955,9.497l-4.753,9.124L77.448,135.293z M69.107,119.281l4.753-9.128
	l4.893,9.388L74,128.669L69.107,119.281z M61.638,104.947h8.035l-4.02,7.705L61.638,104.947z M120.23,104.947l-4.159,7.979
	l-4.163-7.979H120.23z M112.622,119.541l-4.95,9.507l-5.089-9.747l4.96-9.507L112.622,119.541z M99.134,112.682l-4.029-7.734h8.053
	L99.134,112.682z M95.69,119.296l-5.084,9.752l-4.95-9.502l5.08-9.752L95.69,119.296z M82.202,112.921l-4.154-7.974h8.308
	L82.202,112.921z M94.059,135.667l5.08-9.747l5.085,9.747l-5.085,9.757L94.059,135.667z M128.601,104.947h8.662l-4.331,8.31
	L128.601,104.947z M99.451,177.523l-5.07-9.737l4.758-9.123l5.07,9.732L99.451,177.523z"/>
</svg>
