<?xml version="1.0" encoding="utf-8"?>
<!-- Generator: Adobe Illustrator 16.0.0, SVG Export Plug-In . SVG Version: 6.00 Build 0)  -->
<!DOCTYPE svg PUBLIC "-//W3C//DTD SVG 1.1//EN" "http://www.w3.org/Graphics/SVG/1.1/DTD/svg11.dtd">
<svg version="1.1" id="Layer_1" xmlns="http://www.w3.org/2000/svg" xmlns:xlink="http://www.w3.org/1999/xlink" x="0px" y="0px"
	  viewBox="0 0 200 200" style="enable-background:new 0 0 200 200;" xml:space="preserve">
<style type="text/css">
<![CDATA[
	.st0{fill:#5D5D5D;}
]]>
</style>
<path class="st0" d="M100,2.1C46,2.1,2.2,45.9,2.2,99.9c0,54,43.8,97.8,97.8,97.8c54,0,97.8-43.8,97.8-97.8
	C197.8,45.9,154,2.1,100,2.1z M145.2,87.2l-42.5,42.1c-1.5,1.4-3.8,1.4-5.3,0L54.8,87.2c-1.5-1.4-1.5-3.8,0-5.2
	c1.5-1.4,3.8-1.4,5.3,0l39.9,38.4L139.9,82c1.5-1.4,3.8-1.4,5.3,0C146.6,83.4,146.6,85.8,145.2,87.2z"/>
</svg>
