
<svg version="1.1" id="Layer_1" xmlns="http://www.w3.org/2000/svg" xmlns:xlink="http://www.w3.org/1999/xlink" x="0px" y="0px"
	 viewBox="0 0 229.7 216.1" style="enable-background:new 0 0 229.7 216.1;" xml:space="preserve"
	>
<style type="text/css">
<![CDATA[
	.st0{fill:none;stroke:#FFFFFF;stroke-width:8.4699;stroke-miterlimit:10;}
]]>
</style>
<path class="st0" d="M95,90.3c0,18.4-1.8,35-5.4,49.9c-3.6,14.9-9,27.6-16,38c-7.1,10.4-16,18.4-26.7,23.9
	c-10.7,5.6-23,8.4-36.8,8.4v-39.8c27.7,0,41.6-26.8,41.6-80.4H10.1V5.3H95V90.3z M223.8,90.3c0,18.4-1.8,35-5.4,49.9
	c-3.6,14.9-9,27.6-16,38c-7.1,10.4-15.9,18.4-26.4,23.9c-10.6,5.6-22.9,8.4-37.1,8.4v-39.8c28,0,42-26.8,42-80.4h-42V5.3h84.9V90.3z
	"/>
</svg>
