
<svg version="1.1" id="Layer_1" xmlns="http://www.w3.org/2000/svg" xmlns:xlink="http://www.w3.org/1999/xlink" x="0px" y="0px"
	 viewBox="0 0 251.7 215.6" style="enable-background:new 0 0 251.7 215.6;" xml:space="preserve"
	>
<style type="text/css">
<![CDATA[
	.st0{fill:#FFFFFF;}
]]>
</style>
<g>
	<path class="st0" d="M214.9,130.3c-0.8-3.1-2.6-5.7-4.7-7.9c1.4-6.1,2.2-12.5,2.2-19.1c0-8.4-1.2-16.6-3.5-24.2V61.1
		c0-36.9-32.8-44.4-40.5-45.7C161,6.2,151.1,1.6,139.1,1.6c-14.8,0-28.4,7.1-32.9,9.7C100.2,9.1,94.7,8,89.6,8
		C71.5,8,61.4,21.5,57.8,29.9c-6.1,2-10.8,5.8-14,11.4c-9.6,16.9-1.2,44.4-0.9,45.6c0.2,0.7,0.6,1.3,1.2,1.7
		c-0.9,4.9-1.3,9.8-1.3,14.9c0,5.9,0.6,11.7,1.8,17.2c-2.1,2.5-4.1,5.7-4.8,9.4c-0.9,4.5,0.1,8.9,2.9,13.1
		c-0.9,7.1,0.4,18.8,10.9,22.9c0.8,8.3,5.3,20.4,18.2,21.9c2.1,7.5,8.1,18.3,20.3,18.3c0.9,0,1.8-0.1,2.8-0.2
		c2.9,2.4,10,7.3,19.5,7.3c4.7,0,9.3-1.2,13.7-3.6c5,2,9.6,2.9,13.9,2.9l0,0c11.5,0,17.3-6.8,19.7-10.6c0.8,0.1,1.7,0.1,2.5,0.1
		c11.4,0,17.3-8.6,19.5-14.8c13.1-1.5,17.6-13.7,18.4-21.9c10.5-4.2,11.9-15.9,10.9-22.9C215.8,137.6,215.7,133.2,214.9,130.3
		 M127.6,159.9c-16.5,0-29.6-10.3-35.3-24.7h70.6C157.3,149.7,144,159.9,127.6,159.9 M197.4,114c-1.7-0.6-3.4-0.9-5.1-0.9
		c-6.5,0-12,4.2-15.2,7.2c-3.4-3-7.3-4.5-11.6-4.5c-5.9,0-11.1,3-13.7,4.9c-3.1-1.2-6.2-1.9-9.4-1.9c-6.7,0-11.9,2.8-14.8,4.9
		c-4.1-3.1-9-4.8-14.3-4.8c-4.3,0-8,1.1-10.1,1.8c-4.3-2.8-8.7-4.2-13.2-4.2c-5,0-9,1.8-11.5,3.4c-5.8-6.2-12.3-7.5-16.9-7.5
		c-1.5,0-2.9,0.2-4.2,0.4c-0.4-3-0.7-6.1-0.7-9.2c0-15.9,5.4-30.5,14.3-42.4c1.8,0.2,3.6,0.3,5.5,0.3c20.7,0,37.9-11.6,49.4-19.2
		c4-2.7,7.5-5,10.1-6.2c1.8-0.8,3.6-1.4,5.4-1.8c32.3,6.5,56.8,35,56.8,69.2C198.2,107.1,197.9,110.5,197.4,114"/>
	<path class="st0" d="M112.6,90.5c0,5.8-4.7,10.5-10.5,10.5c-5.8,0-10.5-4.7-10.5-10.5c0-5.8,4.7-10.5,10.5-10.5
		C107.8,80,112.6,84.7,112.6,90.5"/>
	<path class="st0" d="M163.6,90.5c0,5.8-4.7,10.5-10.5,10.5c-5.8,0-10.5-4.7-10.5-10.5c0-5.8,4.7-10.5,10.5-10.5
		C158.9,80,163.6,84.7,163.6,90.5"/>
</g>
</svg>
