
<svg version="1.1" id="Layer_1" xmlns="http://www.w3.org/2000/svg" xmlns:xlink="http://www.w3.org/1999/xlink" x="0px" y="0px"
	  viewBox="0 0 200 200" style="enable-background:new 0 0 200 200;" xml:space="preserve">
<style type="text/css">
<![CDATA[
	.st0{fill:#FFFFFF;}
]]>
</style>
<path class="st0" d="M195.6,115.7V84.3l-25.7,0c-1.8-7.9-5-15.3-9.2-21.9l18.2-18l-22.5-22.2l-18.2,18c-6.7-4.2-14.2-7.3-22.2-9.1
	V5.7H84.1v25.4c-8,1.8-15.5,4.9-22.2,9.1l-18.2-18L21.1,44.4l18.2,18c-4.2,6.6-7.4,14-9.2,21.9H4.4v31.4h25.7
	c1.8,7.9,5,15.2,9.2,21.9l-18.2,18l22.5,22.2l18.2-18c6.7,4.2,14.2,7.3,22.2,9.1l0,25.4h31.9v-25.4c8-1.8,15.5-4.9,22.2-9.1l18.2,18
	l22.5-22.2l-18.2-18c4.2-6.6,7.4-14,9.2-21.9L195.6,115.7z M131.9,100c0,17.4-14.3,31.4-31.9,31.4c-17.6,0-31.9-14.1-31.9-31.4
	S82.4,68.6,100,68.6C117.6,68.6,131.9,82.6,131.9,100z"/>
</svg>
