
<svg version="1.1" id="Layer_1" xmlns="http://www.w3.org/2000/svg" xmlns:xlink="http://www.w3.org/1999/xlink" x="0px" y="0px"
	 viewBox="0 0 229.7 216.1" style="enable-background:new 0 0 229.7 216.1;" xml:space="preserve"
	>
<style type="text/css">
<![CDATA[
	.st0{fill:none;stroke:#FFFFFF;stroke-width:5.8876;stroke-miterlimit:10;}
	.st1{fill:none;stroke:#FFFFFF;stroke-width:2.9438;stroke-miterlimit:10;}
	.st2{fill:#FFFFFF;}
]]>
</style>
<g>
	<g>
		<g>
			<path class="st2" d="M88.5,211.3c-6.4,0-12.5-3-16.4-8.1l-52.6-69.5c-6.8-9-5.1-21.9,4-28.7c9-6.9,21.9-5.1,28.7,4l34.6,45.7
				l87-139.7c6-9.6,18.6-12.5,28.3-6.6c9.6,6,12.6,18.6,6.6,28.3l-102.8,165c-3.6,5.7-9.7,9.3-16.5,9.7
				C89.1,211.3,88.8,211.3,88.5,211.3z"/>
		</g>
	</g>
	<g>
		<g>
			<path class="st1" d="M88.5,211.3c-6.4,0-12.5-3-16.4-8.1l-52.6-69.5c-6.8-9-5.1-21.9,4-28.7c9-6.9,21.9-5.1,28.7,4l34.6,45.7
				l87-139.7c6-9.6,18.6-12.5,28.3-6.6c9.6,6,12.6,18.6,6.6,28.3l-102.8,165c-3.6,5.7-9.7,9.3-16.5,9.7
				C89.1,211.3,88.8,211.3,88.5,211.3z"/>
		</g>
	</g>
	<g>
		<g>
			<path class="st0" d="M88.5,211.3c-6.4,0-12.5-3-16.4-8.1l-52.6-69.5c-6.8-9-5.1-21.9,4-28.7c9-6.9,21.9-5.1,28.7,4l34.6,45.7
				l87-139.7c6-9.6,18.6-12.5,28.3-6.6c9.6,6,12.6,18.6,6.6,28.3l-102.8,165c-3.6,5.7-9.7,9.3-16.5,9.7
				C89.1,211.3,88.8,211.3,88.5,211.3z"/>
		</g>
	</g>
</g>
</svg>
