<?xml version="1.0" encoding="utf-8"?>
<!-- Generator: Adobe Illustrator 16.0.0, SVG Export Plug-In . SVG Version: 6.00 Build 0)  -->
<!DOCTYPE svg PUBLIC "-//W3C//DTD SVG 1.1//EN" "http://www.w3.org/Graphics/SVG/1.1/DTD/svg11.dtd">
<svg version="1.1" id="Layer_1" xmlns="http://www.w3.org/2000/svg" xmlns:xlink="http://www.w3.org/1999/xlink" x="0px" y="0px"
	 width="200px" height="200px" viewBox="0 0 200 200" enable-background="new 0 0 200 200" xml:space="preserve">
<path fill="none" stroke="#FFFFFF" stroke-width="10" stroke-miterlimit="10" d="M82.717,84.545c0,16.021-1.567,30.475-4.702,43.448
	c-3.134,12.974-7.836,24.031-13.931,33.087c-6.182,9.055-13.931,16.021-23.248,20.81c-9.316,4.876-20.026,7.313-32.042,7.313
	v-34.654c24.119,0,36.221-23.334,36.221-70.004H8.794V10.536h73.923V84.545z M194.863,84.545c0,16.021-1.568,30.475-4.702,43.448
	c-3.135,12.974-7.837,24.031-13.931,33.087c-6.183,9.055-13.845,16.021-22.987,20.81c-9.229,4.876-19.938,7.313-32.303,7.313
	v-34.654c24.38,0,36.569-23.334,36.569-70.004H120.94V10.536h73.923V84.545L194.863,84.545z"/>
</svg>
