
<svg version="1.1" id="Layer_1" xmlns="http://www.w3.org/2000/svg" xmlns:xlink="http://www.w3.org/1999/xlink" x="0px" y="0px"
	 viewBox="0 0 200 200" style="enable-background:new 0 0 200 200;" xml:space="preserve">
<style type="text/css">
<![CDATA[
	.st0{opacity:0.5;fill:#FFFFFF;}
	.st1{fill:#FFFFFF;}
]]>
</style>
<g>
	<path class="st1" d="M56.4,79.2L21.3,44.1c-23.8,33.4-23.8,78.5,0,111.9l35.2-35.2C50.2,107.7,50.2,92.3,56.4,79.2z"/>
	<path class="st1" d="M120.8,56.4L156,21.3c-33.4-23.8-78.5-23.8-111.9,0l35.2,35.2C92.3,50.2,107.7,50.2,120.8,56.4z"/>
	<path class="st1" d="M79.2,143.6l-35.2,35.1c33.4,23.8,78.5,23.8,111.9,0l-35.2-35.1C107.7,149.8,92.3,149.8,79.2,143.6z"/>
	<path class="st1" d="M143.6,120.8l35.2,35.2c23.8-33.4,23.8-78.5,0-111.9l-35.2,35.1C149.8,92.3,149.8,107.7,143.6,120.8z"/>
	<path class="st0" d="M65.8,134.2c-4-4-7.1-8.6-9.4-13.4l-35.2,35.2c3.1,4.3,6.5,8.5,10.4,12.4c3.9,3.9,8.1,7.3,12.4,10.4l35.2-35.1
		C74.4,141.3,69.8,138.2,65.8,134.2z"/>
	<path class="st0" d="M156,21.3l-35.2,35.2c4.8,2.3,9.4,5.4,13.4,9.4c4,4,7.1,8.5,9.4,13.4l35.2-35.1c-3.1-4.3-6.5-8.5-10.4-12.4
		C164.5,27.7,160.3,24.4,156,21.3z"/>
	<path class="st0" d="M134.2,134.2c-4,4-8.5,7.1-13.4,9.4l35.2,35.1c4.3-3.1,8.5-6.5,12.4-10.4c3.9-3.9,7.3-8.1,10.4-12.4
		l-35.2-35.2C141.3,125.6,138.2,130.2,134.2,134.2z"/>
	<path class="st0" d="M65.8,65.8c4-4,8.5-7.1,13.4-9.4L44.1,21.3c-4.3,3.1-8.5,6.5-12.4,10.4c-3.9,3.9-7.3,8.1-10.4,12.4l35.2,35.1
		C58.7,74.4,61.8,69.8,65.8,65.8z"/>
</g>
</svg>
