<?xml version="1.0" encoding="utf-8"?>
<!-- Generator: Adobe Illustrator 16.0.0, SVG Export Plug-In . SVG Version: 6.00 Build 0)  -->
<!DOCTYPE svg PUBLIC "-//W3C//DTD SVG 1.1//EN" "http://www.w3.org/Graphics/SVG/1.1/DTD/svg11.dtd">
<svg version="1.1" id="Layer_1" xmlns="http://www.w3.org/2000/svg" xmlns:xlink="http://www.w3.org/1999/xlink" x="0px" y="0px"
	 width="200px" height="65.5px" viewBox="0 0 200 65.5" enable-background="new 0 0 200 65.5" xml:space="preserve">
<g>
	<path fill="#FFFFFF" d="M18.766,39.843v18.727H8.408V6.931h20.571c5.936,0,10.604,1.514,14.009,4.539
		c3.405,3.027,5.107,7.011,5.107,11.952c0,4.942-1.702,8.913-5.107,11.917c-3.404,3.003-8.074,4.504-14.009,4.504H18.766z
		 M18.766,31.864h10.214c2.884,0,5.072-0.787,6.562-2.358c1.489-1.572,2.233-3.576,2.233-6.013c0-2.481-0.739-4.533-2.216-6.152
		c-1.478-1.619-3.671-2.43-6.579-2.43H18.766V31.864z"/>
	<path fill="#FFFFFF" d="M66.077,37.928v20.642H55.721V6.931h19.471c5.889,0,10.492,1.342,13.814,4.025
		c3.322,2.683,4.982,6.425,4.982,11.225c0,2.672-0.697,4.966-2.093,6.881s-3.439,3.464-6.136,4.646
		c3.05,0.898,5.243,2.399,6.579,4.505c1.335,2.104,2.004,4.704,2.004,7.803v3.795c0,1.442,0.195,2.949,0.585,4.521
		c0.39,1.574,1.058,2.737,2.004,3.494v0.744H86.258c-0.946-0.757-1.562-2.021-1.844-3.795c-0.283-1.773-0.426-3.451-0.426-5.035
		v-3.654c0-2.575-0.704-4.579-2.109-6.012c-1.407-1.43-3.388-2.146-5.941-2.146H66.077L66.077,37.928z M66.077,29.948h8.938
		c2.908,0,5.077-0.615,6.508-1.845c1.432-1.229,2.146-3.05,2.146-5.462c0-2.363-0.715-4.243-2.146-5.639
		c-1.431-1.396-3.541-2.094-6.331-2.094h-9.115V29.948z"/>
	<path fill="#FFFFFF" d="M145.275,37.396c0,6.337-2.004,11.574-6.013,15.712c-4.008,4.138-9.216,6.207-15.623,6.207
		c-6.36,0-11.526-2.069-15.497-6.207c-3.974-4.138-5.959-9.375-5.959-15.712v-9.292c0-6.313,1.979-11.544,5.939-15.692
		c3.96-4.149,9.121-6.226,15.48-6.226c6.407,0,11.621,2.075,15.642,6.226c4.021,4.149,6.028,9.381,6.028,15.692v9.292H145.275z
		 M134.918,28.06c0-4.027-1.005-7.332-3.016-9.914c-2.01-2.582-4.775-3.874-8.299-3.874c-3.522,0-6.254,1.286-8.191,3.856
		c-1.939,2.57-2.908,5.881-2.908,9.932v9.381c0,4.1,0.98,7.438,2.943,10.021c1.961,2.582,4.692,3.873,8.191,3.873
		c3.547,0,6.313-1.29,8.301-3.873c1.984-2.582,2.979-5.922,2.979-10.021V28.06L134.918,28.06z"/>
	<path fill="#FFFFFF" d="M181.236,45.092c0-1.985-0.703-3.582-2.109-4.788c-1.407-1.205-3.872-2.341-7.395-3.404
		c-6.148-1.773-10.795-3.878-13.938-6.313c-3.146-2.436-4.718-5.77-4.718-10.002c0-4.231,1.804-7.689,5.408-10.373
		c3.605-2.684,8.211-4.025,13.814-4.025c5.676,0,10.297,1.508,13.867,4.521s5.296,6.732,5.178,11.154l-0.07,0.213h-10.037
		c0-2.389-0.797-4.32-2.395-5.8c-1.596-1.478-3.836-2.217-6.721-2.217c-2.768,0-4.906,0.615-6.42,1.845s-2.271,2.803-2.271,4.717
		c0,1.75,0.81,3.188,2.431,4.311c1.619,1.123,4.416,2.313,8.388,3.564c5.698,1.584,10.014,3.677,12.944,6.276
		c2.933,2.603,4.398,6.019,4.398,10.25c0,4.421-1.744,7.909-5.23,10.462c-3.488,2.555-8.094,3.831-13.814,3.831
		c-5.628,0-10.533-1.448-14.719-4.345s-6.219-6.957-6.1-12.184l0.069-0.213h10.071c0,3.073,0.941,5.326,2.82,6.756
		c1.879,1.432,4.498,2.146,7.855,2.146c2.813,0,4.965-0.579,6.455-1.736C180.492,48.579,181.236,47.032,181.236,45.092z"/>
</g>
</svg>
