<?xml version="1.0" encoding="utf-8"?>
<!-- Generator: Adobe Illustrator 16.0.0, SVG Export Plug-In . SVG Version: 6.00 Build 0)  -->
<!DOCTYPE svg PUBLIC "-//W3C//DTD SVG 1.1//EN" "http://www.w3.org/Graphics/SVG/1.1/DTD/svg11.dtd">
<svg version="1.1" id="Layer_1" xmlns="http://www.w3.org/2000/svg" xmlns:xlink="http://www.w3.org/1999/xlink" x="0px" y="0px"
	 width="200px" height="65.5px" viewBox="0 0 200 65.5" enable-background="new 0 0 200 65.5" xml:space="preserve">
<g>
	<path fill="#FFFFFF" d="M34.563,9.162c2.876-0.575,8.629-1.079,14.167-1.079c6.688,0,10.787,0.647,14.311,2.733
		c3.38,1.798,5.753,5.106,5.753,9.565c0,4.242-2.517,8.198-7.91,10.283v0.144c5.537,1.438,9.636,5.682,9.636,11.938
		c0,4.459-2.014,7.91-5.034,10.283c-3.524,2.805-9.421,4.387-19.058,4.387c-5.394,0-9.421-0.359-11.866-0.719V9.162z M45.422,27.644
		h3.596c5.825,0,8.846-2.373,8.846-5.969c0-3.668-2.805-5.609-7.767-5.609c-2.445,0-3.812,0.144-4.674,0.359V27.644z M45.422,49.146
		c1.079,0.217,2.373,0.217,4.243,0.217c4.962,0,9.349-1.943,9.349-7.049c0-4.891-4.387-6.832-9.852-6.832h-3.74V49.146z"/>
	<path fill="#FFFFFF" d="M88.927,44.473l-3.38,12.441H74.185L89,8.443h14.311l15.102,48.471h-11.793l-3.74-12.441H88.927z
		 M101.225,36.273l-3.02-10.283c-0.791-2.877-1.654-6.545-2.374-9.35h-0.215c-0.647,2.877-1.438,6.545-2.158,9.35L90.51,36.273
		H101.225z"/>
	<path fill="#FFFFFF" d="M124.881,9.162c4.027-0.719,9.277-1.079,14.742-1.079c9.277,0,15.318,1.51,19.92,5.034
		c5.035,3.739,8.199,9.78,8.199,18.41c0,9.277-3.381,15.677-7.982,19.632c-5.106,4.244-12.945,6.256-22.438,6.256
		c-5.682,0-9.781-0.359-12.441-0.719V9.162z M135.812,48.643c0.935,0.217,2.517,0.217,3.812,0.217
		c9.996,0.072,16.541-5.395,16.541-16.972c0-10.428-5.897-15.39-15.391-15.39c-2.373,0-4.027,0.216-4.962,0.432V48.643z"/>
</g>
</svg>
