<?xml version="1.0" encoding="utf-8"?>
<!-- Generator: Adobe Illustrator 16.0.0, SVG Export Plug-In . SVG Version: 6.00 Build 0)  -->
<!DOCTYPE svg PUBLIC "-//W3C//DTD SVG 1.1//EN" "http://www.w3.org/Graphics/SVG/1.1/DTD/svg11.dtd">
<svg version="1.1" id="Layer_1" xmlns="http://www.w3.org/2000/svg" xmlns:xlink="http://www.w3.org/1999/xlink" x="0px" y="0px"
	 width="200px" height="65.5px" viewBox="0 134.5 200 65.5" enable-background="new 0 134.5 200 65.5" xml:space="preserve">
<g>
	<path fill="#FFFFFF" d="M46.965,176.963l0.071,0.213c0.094,5.557-1.602,9.967-5.089,13.229c-3.488,3.263-8.329,4.895-14.524,4.895
		c-6.219,0-11.267-1.998-15.144-5.994c-3.878-3.995-5.816-9.138-5.816-15.428v-10.25c0-6.266,1.892-11.408,5.675-15.428
		c3.783-4.02,8.701-6.029,14.754-6.029c6.384,0,11.373,1.638,14.967,4.912c3.594,3.275,5.343,7.737,5.249,13.389l-0.071,0.213
		H36.963c0-3.405-0.815-6.012-2.447-7.82c-1.631-1.81-4.173-2.714-7.625-2.714c-3.098,0-5.557,1.259-7.377,3.774
		c-1.821,2.516-2.731,5.722-2.731,9.619v10.312c0,3.944,0.958,7.175,2.873,9.69c1.916,2.517,4.504,3.773,7.767,3.773
		c3.239,0,5.633-0.869,7.182-2.606c1.548-1.738,2.323-4.321,2.323-7.75H46.965z"/>
	<path fill="#FFFFFF" d="M95.944,173.381c0,6.337-2.004,11.574-6.012,15.712c-4.007,4.138-9.215,6.207-15.623,6.207
		c-6.361,0-11.527-2.069-15.499-6.207s-5.958-9.375-5.958-15.712v-9.292c0-6.313,1.98-11.544,5.941-15.693
		c3.96-4.149,9.12-6.225,15.481-6.225c6.407,0,11.621,2.075,15.641,6.225c4.02,4.149,6.029,9.381,6.029,15.693V173.381z
		 M85.588,164.045c0-4.027-1.005-7.332-3.015-9.914c-2.01-2.582-4.776-3.874-8.299-3.874c-3.523,0-6.254,1.286-8.193,3.856
		c-1.939,2.57-2.908,5.881-2.908,9.932v9.381c0,4.099,0.981,7.438,2.944,10.021c1.962,2.583,4.693,3.873,8.193,3.873
		c3.546,0,6.313-1.29,8.299-3.873c1.986-2.582,2.979-5.922,2.979-10.021V164.045z"/>
	<path fill="#FFFFFF" d="M145.774,194.555h-10.32L114.6,159.266l-0.213,0.035v35.254H104.03v-51.639h10.356l20.854,35.253
		l0.213-0.035v-35.218h10.32V194.555z"/>
	<path fill="#FFFFFF" d="M183.333,181.077c0-1.985-0.704-3.582-2.11-4.788c-1.407-1.205-3.872-2.341-7.395-3.404
		c-6.148-1.773-10.794-3.878-13.938-6.313c-3.145-2.435-4.717-5.769-4.717-10.001s1.803-7.69,5.408-10.374
		c3.605-2.683,8.211-4.025,13.814-4.025c5.675,0,10.297,1.507,13.867,4.521s5.296,6.733,5.178,11.154l-0.07,0.213h-10.037
		c0-2.388-0.798-4.32-2.395-5.799c-1.596-1.478-3.836-2.217-6.721-2.217c-2.767,0-4.906,0.615-6.419,1.845
		c-1.514,1.229-2.271,2.802-2.271,4.717c0,1.75,0.81,3.187,2.43,4.31c1.619,1.123,4.416,2.312,8.388,3.564
		c5.698,1.584,10.014,3.677,12.945,6.277c2.932,2.602,4.398,6.018,4.398,10.25c0,4.421-1.744,7.909-5.231,10.462
		c-3.488,2.554-8.093,3.831-13.814,3.831c-5.628,0-10.533-1.448-14.719-4.345c-4.185-2.896-6.219-6.957-6.1-12.183l0.07-0.213
		h10.072c0,3.073,0.94,5.326,2.82,6.756c1.879,1.431,4.498,2.146,7.855,2.146c2.813,0,4.965-0.579,6.455-1.737
		C182.588,184.565,183.333,183.017,183.333,181.077z"/>
</g>
</svg>
