<?xml version="1.0" encoding="utf-8"?>
<!-- Generator: Adobe Illustrator 16.0.0, SVG Export Plug-In . SVG Version: 6.00 Build 0)  -->
<!DOCTYPE svg PUBLIC "-//W3C//DTD SVG 1.1//EN" "http://www.w3.org/Graphics/SVG/1.1/DTD/svg11.dtd">
<svg version="1.1" id="Layer_1" xmlns="http://www.w3.org/2000/svg" xmlns:xlink="http://www.w3.org/1999/xlink" x="0px" y="0px"
	 width="200px" height="65.5px" viewBox="0 0 200 65.5" enable-background="new 0 0 200 65.5" xml:space="preserve">
<g>
	<path fill="#FFFFFF" d="M44.235,54.992c-3.38,1.15-9.78,2.732-16.181,2.732c-8.846,0-15.246-2.229-19.705-6.472
		C3.962,47.01,1.518,40.682,1.518,33.562C1.589,17.453,13.312,8.248,29.205,8.248c6.257,0,11.075,1.223,13.448,2.301l-2.301,8.846
		c-2.661-1.223-5.897-2.085-11.219-2.085c-9.133,0-16.109,5.178-16.109,15.677c0,10.068,6.329,15.894,15.318,15.894
		c2.445,0,4.458-0.288,5.322-0.647V38.021h-7.479v-8.558h18.051V54.992z"/>
	<path fill="#FFFFFF" d="M73.359,58.013c-14.311,0-22.797-10.859-22.797-24.667c0-14.526,9.349-25.386,23.588-25.386
		c14.886,0,23.013,11.147,23.013,24.523c0,15.965-9.564,25.53-23.732,25.53H73.359z M73.862,49.312
		c7.407,0,11.65-6.977,11.65-16.469c0-8.702-4.1-16.181-11.65-16.181c-7.551,0-11.794,7.335-11.794,16.397
		c0,9.133,4.387,16.253,11.722,16.253H73.862z"/>
	<path fill="#FFFFFF" d="M124.92,58.013c-14.311,0-22.797-10.859-22.797-24.667c0-14.526,9.35-25.386,23.589-25.386
		c14.886,0,23.013,11.147,23.013,24.523c0,15.965-9.565,25.53-23.732,25.53H124.92z M125.424,49.312
		c7.407,0,11.65-6.977,11.65-16.469c0-8.702-4.1-16.181-11.65-16.181s-11.794,7.335-11.794,16.397
		c0,9.133,4.387,16.253,11.722,16.253H125.424z"/>
	<path fill="#FFFFFF" d="M155.914,9.47c4.027-0.719,9.277-1.079,14.743-1.079c9.276,0,15.317,1.51,19.92,5.034
		c5.034,3.739,8.198,9.78,8.198,18.41c0,9.277-3.38,15.678-7.982,19.633c-5.105,4.243-12.944,6.256-22.438,6.256
		c-5.682,0-9.78-0.359-12.441-0.719V9.47z M166.846,48.951c0.935,0.216,2.517,0.216,3.812,0.216
		c9.996,0.072,16.54-5.394,16.54-16.972c0-10.428-5.897-15.39-15.39-15.39c-2.373,0-4.027,0.216-4.962,0.432V48.951z"/>
</g>
</svg>
